<?xml version="1.0" encoding="UTF-8"?>
<svg width="261.77" height="167.39" version="1.1" viewBox="0 0 69.261 44.288" xmlns="http://www.w3.org/2000/svg" xmlns:cc="http://creativecommons.org/ns#" xmlns:dc="http://purl.org/dc/elements/1.1/" xmlns:rdf="http://www.w3.org/1999/02/22-rdf-syntax-ns#">
 <metadata>
  <rdf:RDF>
   <cc:Work rdf:about="">
    <dc:format>image/svg+xml</dc:format>
    <dc:type rdf:resource="http://purl.org/dc/dcmitype/StillImage"/>
    <dc:title/>
   </cc:Work>
  </rdf:RDF>
 </metadata>
 <defs>
  <radialGradient id="A" cx="163.54" cy="51.298" r="7.072" gradientTransform="matrix(1 0 0 .4319 -1.4032 31.373)" gradientUnits="userSpaceOnUse">
   <stop stop-color="#e5c006" offset="0"/>
   <stop stop-color="#e5c006" stop-opacity="0" offset="1"/>
  </radialGradient>
 </defs>
 <g transform="translate(-69 -16.721)">
  <path transform="matrix(.99998 .006876 -.64182 .76685 0 0)" d="M155.07 50.474h14.143v6.108H155.07z" fill="url(#A)" paint-order="stroke fill markers"/>
  <g fill="#28336d" stroke="#e4c006" aria-label="Dices   For All">
   <path d="m138.06 56.428c-0.40865 1.1956-1.5474 1.0578-1.9812 1.7301-0.56311 0.13751-0.90041 0.26476-1.4324 0.68834-0.79281 0.69442-1.6506 1.231-2.1115-0.34416-0.21046-0.99129 0.0371-1.1452 0.36273-2.0464-0.10207-0.81684 0.249-1.7262 0.54848-2.1766-0.0121-0.51629 0.41348-1.2116 0.41856-1.665 0.35593-0.82973 0.61625-1.5011 0.73034-2.2558 0.19566-1.0322-0.80787-1.5536-1.2884-1.9163 0.28238-0.8472 1.4307-1.212 1.9161-2.0322 0.38411-0.13875 2.0413-1.9446 2.3254-0.90228-0.24509 1.0475-1.2293 1.935-1.1999 2.9021-0.21024 0.71189-0.3187 1.1066-0.53947 1.9627-0.198 0.55381-0.34884 1.7308-0.72551 2.5115-0.19713 1.2064-0.78859 2.3006-0.55876 3.5864 0.1614 0.71562 6e-3 1.6646 1.0425 0.77612 0.73592 0.04682 1.8093-1.5067 2.4202-0.96719l0.0707 0.14427zm-7.4693 0c-0.40865 1.1956-1.5474 1.0578-1.9812 1.7301-0.56311 0.13751-0.90041 0.26476-1.4324 0.68834-0.79281 0.69442-1.6506 1.231-2.1115-0.34416-0.21046-0.99129 0.0371-1.1452 0.36274-2.0464-0.10207-0.81684 0.24901-1.7262 0.54849-2.1766-0.0121-0.51629 0.41348-1.2116 0.41856-1.665 0.35593-0.82972 0.61625-1.5011 0.73035-2.2558 0.19566-1.0322-0.80787-1.5536-1.2884-1.9163 0.28238-0.8472 1.4307-1.212 1.9161-2.0322 0.38411-0.13875 2.0413-1.9446 2.3254-0.90228-0.24509 1.0475-1.2293 1.935-1.1999 2.9021-0.21024 0.71189-0.3187 1.1066-0.53947 1.9627-0.198 0.55381-0.34884 1.7308-0.72551 2.5115-0.19713 1.2064-0.78859 2.3006-0.55876 3.5864 0.16141 0.71562 6e-3 1.6646 1.0425 0.77612 0.73589 0.04683 1.8094-1.5068 2.4202-0.96717l0.0706 0.14428zm-12.195-11.655c1.1632 0.10539 0.41522 1.8412 1.0325 2.5115 0.23566 0.82538-0.0138 1.9835 0.53018 2.5859-0.85036 1.0593 0.93809 1.2942 1.7669 0.93684 0.7963-0.4068 1.5963 0.14694 2.4115-0.43652 1.3408-0.85285 1.477 0.8679 0.28125 1.3836-0.62807 0.74365-1.7644 0.43119-2.5889 0.56046-1.0112 0.24536-1.6576 0.63139-1.2671 1.7961 0.0873 0.79674-0.0395 1.3458 0.29863 2.0289 0.19208 1.0396 0.66261 1.5754-0.0465 2.6882-0.65476 0.11519-1.5148 1.8408-1.8604 0.14631-0.0144-0.90214-0.4668-1.809-0.0744-2.6578-0.37184-1.148-5e-3 -2.2811-0.10231-3.451-0.90661-0.51307-1.1148 0.52481-2.345 0.35943-0.9422 0.25444-1.4476 0.22666-1.9749 0.72352-0.43168 0.11929-0.78075 0.78736-1.6425 0.7309-0.70672 0.3643-1.1963 0.59434-1.5055 1.4907-0.24118 0.94206-0.67746 1.4134-1.2199 2.2207-0.15472 0.39808-1.049 1.7673-1.2557 0.70693 0.19666-0.6538-0.40949-1.9903 0.22889-2.3846 0.65033 0.94063 1.7065-0.80809 1.6036-1.1593-0.38299 0.06774-2.3215 0.17269-0.65111-1.2557 0.3325-0.43488 1.116-0.97747 1.6743-0.57671 0.72632-0.37482 1.064-1.166 1.6162-2.1208 0.42595-0.60793 1.0423-1.4816 1.5092-2.1673 0.55476-1.1453 1.4296-1.9861 1.9659-3.0999 0.20582-0.74523 0.86742-1.0929 1.6152-1.5603zm-1.4604 2.7812c-0.69817 0.34765-1.2468 1.1813-1.5813 1.972-0.7888 0.59681-0.6913 1.4973-1.292 2.0533-0.37661 0.54384-1.3002 1.789 0.0555 1.5785 0.85978-0.42273 1.3788-0.38957 2.1697-0.60952 0.72662-0.08867 1.6582-0.37636 2.1457-0.75514-0.67399-0.64028 0.41745-1.7492-0.69787-1.7382 0.52544-0.40142-0.35771-0.48904-0.51273-1.4451 5.5e-4 -0.20214-7e-3 -0.81848-0.28699-1.0558zm-15.571 2.7161c0.69786 0.7197-1.2328 3.2414 0.55813 1.8325 0.94584-0.70714 2.1629-1.5679 3.3486-1.1999 0.14627 0.9288-1.2556 1.2284-1.983 1.3214-1.7376 0.53002-2.6731 2.5894-2.704 4.3416-0.44838 1.0125-0.2237 2.8856-1.8986 2.7737-1.4654-0.35398 0.94085-2.4635 0.34629-3.4195-0.66374-1.1573 0.68496-1.0477 0.54586-2.0669-0.13019-1.0022-0.09231-1.537-1.1876-0.93359-1.8916-0.20034 1.3735-2.4479 2.1371-2.2865 0.27362-0.14473 0.58528-0.16591 0.83715-0.36277zm-6.7345-0.0186c1.0269 0.27284 1.2409 0.48436 2.1301 0.5395 0.19707 1.1321-0.03375 2.3724-1.0046 3.0882 0.35553 1.0452-0.91167 1.6026-1.0697 2.5673-0.88382 0.63628-1.4132 1.6177-2.4023 2.2924-0.86228 0.5216-2.081 1.8453-2.3416-0.0042 0.17077-0.96605-0.38458-1.6415-0.26421-2.4876-0.02113-0.97974 0.19688-1.7686 0.33862-2.3679 0.52832-0.87599 0.78787-1.9695 1.6292-2.5073 0.74662-0.70899 1.9893-0.85829 2.9845-1.1204zm-0.57671 1.665c-1.0829 0.08077-3.0414 1.0385-2.5859 2.5115 0.05925 0.85751-0.3269 3.5574 1.0418 2.9487 0.6632-0.76417 1.2496-1.5202 1.6463-2.4984 0.64812-0.83762 0.18404-1.8686 0.27089-2.187 0.22999-0.30572 0.24819-0.98208-0.37314-0.77472zm-4.4369-5.8136c0.82532 0.42653 0.19349 1.1952-0.59437 1.3742-0.82129 1.6336-1.8758-0.12049-3.0054 0.47686-0.9139-0.35577-1.7203-0.42884-1.7208 0.76275-0.0783 0.83595-0.32978 1.6846-0.40928 2.4743 0.9444 0.59331 2.2864 0.25393 3.451 0.56741 0.8643-0.57355 1.6671 0.70823 0.64281 1.1018-0.66522 0.42568-1.4008 1.4116-2.0381 0.65626-0.5481-0.56473-1.5857-0.42594-2.4371-0.43718-0.84962 0.03788-0.33217 1.4954-0.86229 2.0979-0.16086 0.74715-0.42843 1.6123-0.75622 2.4878-0.34333 0.76952-0.66425 1.5716-1.2743 2.1952-0.17898 0.53351-2.0424 1.5085-2.1394 0.45578 0.44327-0.78313 0.88985-1.3679 1.851-1.8324 0.82908-1.1409 1.1212-2.544 1.5182-3.7692-0.20574-0.43059 0.82203-1.5727-0.15262-1.278-1.0383 0.26185-1.4247-1.0134-0.62678-1.5038 0.93304-0.07265 1.3714-1.4202 1.01-1.9416-0.02016-0.60364 0.58831-1.6766-0.0595-2.2567-0.51468-0.03055-1.804-4.14e-4 -2.4263 0.52586-1.2058-0.64425-0.06131-1.4431 0.73704-1.8875 0.82458-0.35176 1.8343 0.21254 2.6193 0.13557 0.93942 0.09515 1.3683-0.43401 2.0502 0.03186 0.67419 0.14272 1.5764-0.22848 2.2966-0.26404 0.70826 0.07529 1.7264 0.43869 2.3227-0.16907zm21.813-20.632c1.1645 0.25166 0.34844 1.3013-0.47678 1.4226-0.85876 0.20511-1.9182 1.0397-1.0614 1.9091 0.27762 0.87408 1.0482 0.85928 1.315 1.5982 0.50567 0.90547 1.2427 1.875 0.41801 2.8173-0.76844 1.0479-1.9005 1.7313-2.9574 2.5777-0.82934 0.33978-2.3705 0.75979-1.4604-0.34416 0.99563-0.68122 1.9954-1.1166 2.623-2.1115 0.26995-0.79291-0.1211-1.9341-0.86852-2.3713-0.83819-0.71215-1.6943-1.967-1.1685-3.0795 0.54911-0.9088 1.3423-0.98562 2.1571-1.9028 0.47433-0.01497 1.0462-0.19495 1.48-0.51569zm-8.2321 1.0697c0.39749 0.46005 1.6963-0.03087 1.7917 0.89954-0.29964 0.48192 0.42714 1.347-0.13596 1.847 0.77041 0.689-1.2274 0.91052-1.2185 1.7462-0.84078 0.42243-1.5097 0.23572-2.119 0.63324-1.1478-0.29815-0.22845 1.4098-0.73663 2.0178-3e-3 1.0436 1.3344 0.52366 2.1766 0.38138 0.46499 0.07327 1.0687-0.25624 1.6371-0.5395 0.64746-0.44082 2.3175-1.4422 1.8604 0.15814-0.64587 0.43513-1.4152 0.55727-1.8417 1.0232-0.90101 0.05642-1.7352 0.75711-2.7068 0.68833-0.58889 0.27332-1.5678 0.54381-2.2249 0.78137-0.89511 0.305-0.74375-1.3346-0.80273-2.0062-0.33581-0.84631 0.44602-1.0985 0.0511-1.7518 0.17446-0.7005 0.36606-1.6686 0.978-2.1593 0.27427-0.75157 0.0761-0.8098 0.18471-1.6079 0.79393-0.43877 1.3126-1.517 2.2882-1.7115 0.12355-0.33154 0.54788-0.2648 0.81855-0.39997zm-0.22324 1.5813c-1.1616 0.10825-1.8422 1.1539-1.8324 2.1673 0.90784 0.42358 1.9289-0.20359 2.3384-1.0345 0.0286-0.43506 0.0696-1.1869-0.50597-1.1328zm-4.8648 5.6927c-0.56295 0.9447-1.7159 0.88955-2.5673 1.4697-0.621 0.03508-1.5232 0.78945-2.0743 0.71624-0.43055 0.41399-1.6443 0.68781-1.9844-0.24507-0.75615-0.7362-0.6008-1.5207-0.7038-2.4897 0.11174-0.96978 0.21675-1.8952 0.39997-2.8835 0.02575-0.19385 0.61407-1.6495 0.81856-2.2789 0.8123-0.80357 1.6976-1.7691 2.9283-1.7668 0.73136-0.28618 1.6461-0.1884 1.9272 0.53217-0.5022 0.73967-1.2287 1.113-1.758 1.5052-0.77506 0.58159-1.1013-0.89261-1.6108 0.413-0.96583 1.6531-0.99062 3.867-0.16144 5.5339 0.48888 0.45953 1.1386-0.12657 1.8373-0.21791 1.0501-0.09064 1.7262-0.73099 2.837-0.79994 0.2043 0.1571 0.22147 0.28524 0.11164 0.51161zm-8.725-11.655c-0.1989 1.3837-2.5432 2.0134-1.8891 0.0134 0.49623-0.74665 0.96824-0.7294 1.7961-1.0087 0.20267 0.25038 0.20585 0.70806 0.09303 0.99529zm-1.3488 5.4415c-0.03348 0.84103-0.53314 1.3827-0.50062 2.228 0.0989 1.4157-0.43723 2.6723-0.39235 4.1112 1.103-0.21422 3.696-2.8828 2.251-0.06744-0.54979 0.38009-1.0396 0.81742-1.8434 1.0581-0.67638 0.51282-1.0537 0.50896-1.4959 0.97667-1.147 0.76016-0.89276-2.0836-0.62786-2.9254-0.01474-1.0458 0.07745-2.2898 0.48289-3.2234-0.85542-1.3366-1.3794 1.5056-2.1618 0.64216 0.0092-1.3648 1.7748-2.0051 2.3714-2.487 0.42921-0.05151 2.09-2.0013 1.9168-0.31286zm-14.855-6.8182c0.84143 0.13577 1.5512 0.08242 2.2127 0.38852 0.74142 0.53218 1.7048 0.55245 2.6614 0.83001 0.78825 0.55918 1.8707 0.93481 2.3813 1.4325 0.7679 0.28431 0.39377 1.1286 1.4325 1.1999 0.32755 0.75499 1.2524 1.2862 1.2663 2.2838 0.31063 0.84346-0.40445 1.5588-0.3547 2.4415-0.5324 0.89007-1.0351 1.7943-1.8362 2.2775-0.83072 0.80778-1.8371 1.3865-2.8348 1.8883-0.84025 0.37367-1.7335 0.75988-2.6773 1.3222-0.95646 0.17915-1.8918 0.88376-2.8099 1.1281-0.86116 0.27199-1.5048 1.0399-2.1294 1.495-0.96103 1.0973-1.5068-0.26387-1.1563-1.1985 0.58947-0.52388 1.6422-0.78965 1.9376-1.22 0.54171-1.2329 0.83461-2.8544 0.72555-4.3253 0.23578-1.3596 0.35618-2.8126 0.70694-4.1858-0.20532-0.65846 0.06782-1.8082-0.942-1.1627-1.2546 0.4444-0.15143-0.7629 0.4025-1.2185 1.2226-0.22888 0.06474-1.6868-0.64519-1.5052 0.91252-0.38904 0.27229-1.0491 1.1222-1.5502 0.17896-0.10707 0.35792-0.21414 0.53688-0.32121zm1.9813 2.3812c-0.542 0.57523-0.33478 1.5365-0.57417 2.4091 0.10151 0.92545-0.58376 1.7977-0.45833 2.6046-0.21501 0.75771-0.42045 1.8305-0.68793 2.6992-0.08421 1.4702-0.69996 2.8512-1.1832 4.1658 0.80457 0.07864 1.7803-0.68869 2.6147-0.71059 0.49201-0.25193 1.2463-0.63491 1.8278-0.95218 0.89732-0.46174 1.7024-0.79215 2.4422-1.2955 1.0709-0.76235 2.2239-1.6806 2.7998-2.958 0.40255-0.75153-0.42264-1.6385-0.5116-2.3813-0.64679-0.84253-1.4425-1.5572-2.3725-1.9933-1.0777-0.93223-2.4372-0.88733-3.6829-1.6064l-0.16004 0.01391z" stroke-width=".4"/>
  </g>
  <g stroke="#000">
   <path d="m127.47 24.048 10.382-1.414m0 0-5.354 9.143h0m0 0 5.354 2.884m-10.223-17.84-0.159 7.227-10.064-1.414m0 0 5.037 9.143m10.055 0-4.822 8.985-5.233-8.985-5.037 2.951h0m5.037-2.951h10.055m-5.028-7.73 5.028 7.73m-5.028-7.73-5.028 7.73m-5.037 2.951 10.27 6.034 10.176-6.101h0m-20.446-12.027 10.223-5.813 10.223 5.813m0 12.027v-12.027m-20.446 12.094v-12.094" fill="none" stroke-dasharray="0.4, 0.2, 0.1, 0.2" stroke-dashoffset="2" stroke-linecap="round" stroke-linejoin="round" stroke-miterlimit="0" stroke-width=".2" paint-order="normal"/>
   <g fill="#e5bf06" stroke-width=".1">
    <path d="M125.658 28.23l.752-.564.872.525q.007.105.007.175 0 .297-.163.506-.163.21-.729.53-.255.145-.36.233-.103.087-.186.213.221-.098.383-.136.165-.04.324-.04.136 0 .277.02.143.02.217.04l.28.09-.315.345q-.282-.098-.385-.118-.163-.034-.307-.034-.275 0-.599.125-.069.027-.08.027-.011 0-.016-.007-.007-.009-.007-.027 0-.087.06-.212.08-.17.23-.335.107-.119.347-.315.241-.195.333-.297.128-.143.197-.298.07-.156.07-.331 0-.262-.195-.432l-.751.575z"/>
    <path d="M128.335 27.666q.411.141.638.452.228.309.228.729 0 .412-.213.751-.212.336-.575.572-.259-.061-.47-.232-.21-.17-.322-.423-.11-.253-.11-.526 0-.391.226-.76.226-.369.599-.562zm-.315.333q-.25.284-.25.684 0 .282.121.532.121.25.345.412.226.163.461.197.13-.179.184-.335.056-.157.056-.347 0-.26-.107-.496-.105-.237-.317-.4-.212-.165-.496-.248z"/>
   </g>
  </g>
 </g>
</svg>
