<?xml version="1.0" encoding="UTF-8" ?>
<!DOCTYPE svg PUBLIC "-//W3C//DTD SVG 1.1//EN" "http://www.w3.org/Graphics/SVG/1.1/DTD/svg11.dtd">
<svg width="493pt" height="428pt" viewBox="0 0 493 428" version="1.1" xmlns="http://www.w3.org/2000/svg">
<path fill="#000000" opacity="1.00" d=" M 229.92 17.39 C 239.87 19.90 233.76 0.40 243.44 1.01 C 245.59 3.34 244.41 7.08 246.14 9.72 C 249.58 8.51 246.28 -0.20 251.73 1.07 C 257.65 4.33 255.25 14.53 259.84 17.69 C 270.50 15.57 256.21 33.71 266.37 33.74 C 277.92 32.98 270.92 48.15 280.93 46.99 C 276.37 52.81 285.16 56.94 287.27 61.71 C 290.61 66.68 287.23 72.21 285.24 76.92 C 294.46 81.44 305.60 87.98 307.84 98.66 C 294.28 101.73 286.40 116.16 288.77 129.07 C 290.99 121.07 294.65 112.43 304.06 110.89 C 313.15 106.59 328.68 121.33 317.96 128.11 C 309.59 132.17 315.22 118.62 308.66 117.56 C 300.94 115.27 294.16 125.13 296.95 131.98 C 301.81 131.86 303.35 126.70 305.47 123.27 C 318.26 122.29 306.23 148.43 319.86 142.57 C 326.40 141.78 343.17 146.27 333.09 154.17 C 345.32 158.69 356.19 169.97 352.51 184.07 C 350.84 194.29 333.41 194.23 332.55 183.37 C 330.22 177.92 335.61 174.05 340.18 173.27 C 344.27 174.89 339.34 185.68 345.80 184.99 C 349.02 175.08 339.29 165.67 329.93 164.52 C 318.36 165.32 307.79 173.23 302.90 183.62 C 308.65 181.21 315.20 184.56 317.88 189.89 C 308.83 195.79 292.36 205.27 296.94 217.94 C 308.05 209.37 317.68 191.80 334.44 196.38 C 344.70 197.39 350.10 215.95 338.07 217.94 C 341.65 210.80 335.93 200.21 328.17 206.08 C 334.09 208.37 337.00 218.31 328.83 220.02 C 323.50 227.13 310.37 236.72 306.36 223.71 C 300.71 224.48 299.72 234.20 304.98 238.04 C 311.48 245.40 313.31 263.73 326.71 259.35 C 316.73 249.27 332.57 240.87 341.68 240.71 C 346.70 235.74 353.78 241.86 352.37 247.90 C 360.90 246.02 356.27 233.80 348.39 234.45 C 350.88 224.95 366.94 235.57 364.83 244.53 C 363.07 263.61 341.12 264.84 326.88 269.05 C 334.00 279.77 351.79 270.37 360.96 266.05 C 366.63 269.71 362.56 277.47 360.43 282.16 C 371.68 281.79 384.04 277.21 389.79 266.96 C 392.51 258.81 390.18 246.58 381.00 244.09 C 374.55 247.85 390.64 250.96 386.03 256.03 C 382.80 257.85 378.28 260.02 375.14 256.88 C 365.65 251.47 373.55 234.10 384.16 238.61 C 397.30 242.18 402.45 257.03 400.06 269.31 C 413.28 267.18 406.43 286.80 399.51 291.49 C 401.63 297.67 415.49 299.26 413.87 308.43 C 410.39 311.38 403.25 307.38 400.93 312.87 C 406.04 318.06 416.05 317.57 419.64 311.02 C 422.95 304.21 408.29 301.98 415.04 295.91 C 423.96 292.30 429.63 304.75 426.29 311.90 C 422.58 322.17 409.36 324.96 400.02 320.89 C 410.02 332.11 426.16 326.92 436.74 320.18 C 442.19 328.85 445.05 339.83 442.66 350.01 C 450.06 350.00 458.54 353.70 459.81 361.73 C 460.06 366.11 462.71 368.73 466.50 369.66 C 460.55 376.44 476.86 379.16 470.92 387.89 C 466.38 396.40 488.87 392.96 481.77 402.42 C 483.69 407.50 492.23 410.89 491.83 417.69 C 489.59 420.72 485.37 415.73 482.88 418.24 C 482.83 421.49 488.45 421.63 487.68 424.92 C 484.50 432.88 466.99 417.90 468.08 428.00 L 464.35 428.00 C 460.36 426.04 457.62 422.47 454.74 419.22 C 451.42 421.95 448.81 426.49 444.02 426.62 C 439.87 426.82 433.93 420.62 434.13 428.00 L 431.34 428.00 C 425.42 422.08 408.20 431.88 404.71 417.39 C 396.02 422.84 386.52 427.98 375.81 426.96 C 370.42 424.15 376.00 417.52 374.84 413.26 C 372.73 404.40 365.02 397.77 357.24 393.65 C 366.11 401.36 371.25 418.66 358.63 425.27 C 353.77 429.14 342.04 427.17 343.46 419.42 C 344.63 413.04 350.91 418.67 354.83 418.87 C 364.09 416.31 359.07 399.10 350.13 400.31 C 349.31 405.03 353.29 408.53 353.96 412.89 C 346.91 418.66 337.91 408.14 331.74 408.97 C 331.14 416.70 316.42 435.23 313.14 420.05 C 308.56 422.74 304.31 426.04 299.33 428.00 L 288.57 428.00 C 281.51 425.64 272.57 420.79 275.24 411.67 C 277.04 400.78 296.67 402.21 293.98 414.08 C 295.64 421.26 275.12 408.80 283.07 417.97 C 308.03 428.46 315.16 394.86 303.84 378.71 C 301.61 383.73 297.76 390.27 291.27 388.68 C 287.04 380.22 290.54 358.16 276.14 357.17 C 278.13 369.94 286.80 384.38 279.05 396.91 C 274.61 407.89 252.96 407.34 255.36 393.00 C 259.79 398.88 271.43 399.91 271.12 390.49 C 266.81 390.94 259.21 393.30 258.49 387.03 C 257.33 378.02 251.02 358.52 267.17 362.57 C 267.09 347.71 247.16 355.92 238.14 353.86 C 231.71 352.00 225.32 355.62 225.90 362.59 C 241.57 358.36 235.94 377.46 234.62 386.29 C 234.53 393.14 226.40 391.18 221.88 390.49 C 221.56 399.91 233.22 398.89 237.64 392.98 C 240.27 407.14 218.30 407.95 213.91 396.91 C 206.35 384.15 214.71 370.00 216.86 357.19 C 203.05 358.11 205.24 379.04 202.65 388.13 C 195.56 390.73 191.52 384.05 189.17 378.73 C 177.82 394.87 184.98 428.46 209.93 417.97 C 218.25 408.20 194.59 423.11 198.95 412.09 C 198.56 401.55 216.59 401.87 217.65 411.86 C 220.70 420.79 211.23 425.63 204.45 428.00 L 193.67 428.00 C 188.70 426.04 184.43 422.75 179.86 420.06 C 176.59 435.18 161.86 416.41 161.26 408.97 C 155.09 408.14 146.08 418.66 139.04 412.89 C 139.71 408.53 143.69 405.03 142.87 400.31 C 133.93 399.10 128.90 416.31 138.17 418.87 C 142.58 417.93 149.66 413.16 149.85 420.91 C 146.90 432.23 127.66 426.41 127.36 416.03 C 124.10 406.94 130.64 400.09 135.76 393.66 C 127.31 398.45 117.59 406.00 118.13 416.77 C 125.21 435.59 95.23 423.64 88.28 417.38 C 85.12 432.21 66.88 421.77 61.74 428.00 L 58.95 428.00 C 58.72 423.35 55.61 423.44 51.78 425.48 C 45.81 428.89 42.06 422.41 38.23 419.18 C 35.30 422.40 32.76 426.21 28.63 428.00 L 24.90 428.00 C 25.73 418.42 10.51 431.49 5.63 425.69 C 3.49 421.91 10.20 421.67 10.13 418.23 C 7.63 415.73 3.41 420.73 1.18 417.69 C 0.77 410.89 9.31 407.50 11.23 402.42 C 6.40 397.63 14.58 394.50 18.57 393.63 C 27.00 394.18 19.22 386.29 21.37 382.56 C 21.03 377.18 31.83 375.66 26.57 370.75 C 34.35 366.28 34.84 347.61 49.63 350.27 C 49.41 341.53 49.18 322.49 59.87 320.90 C 68.11 330.28 84.90 329.45 92.99 320.88 C 81.07 326.99 62.05 317.90 66.53 303.01 C 66.75 296.10 78.70 291.35 80.09 299.87 C 77.75 303.56 71.35 305.66 73.36 311.01 C 76.92 317.76 86.92 318.03 92.10 312.87 C 89.73 307.39 82.64 311.37 79.13 308.44 C 77.31 299.14 91.74 297.99 93.55 291.55 C 86.59 286.87 79.70 267.19 92.94 269.31 C 90.97 258.29 94.36 245.22 105.25 240.08 C 111.27 235.36 121.80 239.30 121.81 247.37 C 124.04 255.43 113.84 261.78 107.62 256.42 C 100.99 251.66 118.71 247.78 111.97 244.11 C 102.49 246.79 100.35 259.42 103.49 267.61 C 109.56 277.11 121.17 281.86 132.12 282.22 C 131.15 277.53 125.99 269.77 132.05 266.04 C 141.38 270.70 158.66 279.54 166.10 269.09 C 155.02 264.62 141.51 265.57 132.88 256.01 C 122.47 247.36 131.01 224.08 145.10 232.86 C 139.77 234.87 130.65 243.34 139.92 247.75 C 139.45 230.08 180.09 244.61 166.18 259.31 C 180.82 263.13 182.68 242.77 190.06 234.43 C 195.39 230.19 186.51 218.22 184.46 227.38 C 176.61 237.18 167.92 220.84 160.18 217.93 C 156.82 213.38 160.90 208.33 164.86 206.07 C 157.41 200.31 150.63 210.65 154.96 217.86 C 145.43 217.05 146.87 203.44 153.14 199.01 C 170.51 187.36 184.61 208.08 196.05 217.93 C 200.63 205.27 184.16 195.79 175.12 189.89 C 177.80 184.56 184.34 181.21 190.10 183.62 C 185.19 173.22 174.71 165.34 163.13 164.43 C 153.86 165.78 143.82 174.92 147.18 184.93 C 154.57 186.10 147.63 167.16 156.85 174.94 C 169.00 182.36 151.05 199.19 142.49 188.47 C 134.18 174.27 146.36 158.72 159.92 154.17 C 149.65 146.10 167.31 141.44 173.84 142.74 C 187.46 148.33 174.45 122.16 187.53 123.27 C 189.65 126.70 191.19 131.86 196.05 131.98 C 198.98 124.89 191.55 114.72 183.69 117.77 C 179.02 119.33 181.80 126.70 178.78 128.74 C 169.69 129.71 169.21 116.68 176.54 113.53 C 188.03 104.64 202.76 116.33 204.27 128.83 C 204.87 121.09 202.82 105.48 191.92 102.02 C 189.39 101.05 183.18 99.82 185.63 95.72 C 190.21 86.94 198.94 81.09 207.64 76.84 C 199.82 67.18 207.82 58.46 213.75 50.95 C 210.54 46.78 213.88 46.13 217.84 46.12 C 216.59 37.39 223.57 34.00 230.83 31.89 C 230.09 27.13 227.82 22.06 229.92 17.39 M 241.01 7.97 C 236.73 11.99 240.54 24.88 232.97 21.66 C 232.46 31.15 241.63 39.89 236.32 49.89 C 240.84 47.78 241.19 40.75 246.17 38.58 C 251.73 39.78 251.97 47.88 256.66 49.82 C 251.44 39.94 260.62 31.06 259.97 21.71 C 252.40 25.49 256.28 9.74 251.57 8.61 C 245.90 12.83 249.69 22.93 245.21 24.85 C 246.80 18.53 244.73 12.89 241.01 7.97 M 227.50 37.36 C 223.64 38.83 219.96 43.79 221.82 47.73 C 227.71 49.35 232.10 44.65 228.86 39.11 C 236.04 45.72 234.13 35.49 227.50 37.36 M 262.46 37.20 C 259.46 37.56 257.26 44.35 261.49 40.59 C 267.35 36.04 259.23 48.48 266.69 47.53 C 276.72 50.82 269.19 34.74 262.46 37.20 M 233.19 43.49 C 230.82 49.62 238.66 44.39 233.19 43.49 M 246.13 43.26 C 238.23 47.92 255.65 46.42 246.13 43.26 M 259.18 43.28 C 254.41 47.23 263.49 47.25 259.18 43.28 M 246.16 49.36 C 239.14 54.25 241.69 64.39 235.76 68.97 C 224.08 68.14 240.77 55.93 231.99 51.84 C 226.61 47.57 218.64 61.58 216.88 53.99 C 213.50 58.11 203.89 68.06 210.63 73.89 C 209.26 68.71 214.07 61.68 217.75 60.41 C 216.81 64.66 215.60 69.50 219.22 72.95 C 237.06 77.54 255.79 76.98 273.72 72.98 C 277.45 69.51 276.27 64.53 275.11 60.24 C 280.85 61.24 282.34 70.52 283.05 73.62 C 288.49 66.84 279.13 59.44 276.73 53.97 C 274.12 60.89 266.47 47.66 260.35 52.19 C 253.09 56.85 268.65 68.11 257.24 68.97 C 251.19 64.50 253.96 53.14 246.16 49.36 M 211.87 68.99 C 214.26 76.83 219.41 72.71 211.87 68.99 M 279.76 69.64 C 271.45 77.06 283.59 71.47 279.76 69.64 M 215.29 77.63 C 206.07 79.89 195.65 84.55 191.88 93.87 C 206.09 79.65 227.75 78.82 246.25 83.44 C 264.78 78.98 286.87 79.56 301.15 93.83 C 290.98 74.78 265.22 74.12 246.92 80.67 C 236.90 77.40 225.86 76.19 215.29 77.63 M 221.42 84.44 C 212.53 85.72 203.21 88.40 196.53 94.57 C 195.69 99.81 200.40 93.11 202.66 93.16 C 199.55 100.01 204.86 105.97 206.22 112.50 C 206.61 102.64 219.12 101.70 226.69 101.09 C 217.79 94.14 240.47 87.88 238.96 85.36 C 224.12 78.46 218.70 94.05 211.60 102.75 C 199.19 99.73 221.01 87.31 221.42 84.44 M 262.86 84.62 C 236.71 83.78 277.56 91.65 266.19 101.02 C 273.75 102.16 286.49 102.41 286.77 112.51 C 288.13 105.98 293.46 100.01 290.34 93.16 C 292.60 93.11 297.31 99.81 296.47 94.57 C 289.60 88.21 279.98 85.62 270.86 84.32 C 275.47 89.60 284.71 93.76 285.59 101.11 C 274.61 107.89 275.31 80.91 262.86 84.62 M 244.52 87.54 C 237.05 88.56 234.50 97.00 228.35 100.36 C 239.86 105.17 252.33 104.36 264.83 100.56 C 258.00 96.25 254.30 85.56 244.52 87.54 M 231.22 93.26 C 225.57 94.89 233.61 97.02 231.22 93.26 M 261.25 93.51 C 261.55 98.48 266.44 92.86 261.25 93.51 M 214.33 94.45 C 207.92 97.86 216.21 99.25 214.33 94.45 M 278.28 94.56 C 278.28 100.66 284.40 96.22 278.28 94.56 M 194.07 96.77 C 192.68 103.36 205.25 104.00 194.07 96.77 M 298.79 97.47 C 287.19 105.09 301.08 101.71 298.79 97.47 M 220.33 104.64 C 219.23 104.79 214.47 104.50 217.28 105.86 C 226.05 107.13 205.33 110.54 215.03 111.07 C 233.13 111.07 200.88 115.78 215.90 116.29 C 232.54 118.94 203.96 118.73 214.72 122.31 C 222.00 122.03 222.82 129.01 213.79 124.49 C 206.02 126.93 225.75 130.01 216.64 130.46 C 202.06 129.76 227.34 137.41 210.86 136.91 C 215.65 139.54 220.21 143.04 210.01 140.89 C 218.40 148.54 225.89 158.08 237.21 161.70 C 235.42 155.58 226.76 155.21 224.34 150.96 C 230.22 150.66 233.81 156.17 238.88 158.18 C 236.57 152.78 230.69 150.74 226.01 147.98 C 229.22 143.47 235.19 153.38 240.07 153.59 C 240.69 145.49 227.44 146.80 225.28 141.23 C 228.95 141.36 232.02 143.54 235.35 144.81 C 237.88 137.67 229.42 140.88 228.71 136.13 C 231.16 136.30 235.50 139.22 236.84 136.80 C 238.83 130.75 226.63 136.35 228.18 130.98 C 231.51 131.02 234.80 131.63 238.12 131.93 C 242.35 129.30 225.48 124.82 234.99 126.02 C 241.47 129.57 242.78 122.00 235.76 122.82 C 228.55 119.56 240.19 121.11 243.75 122.01 C 244.55 116.95 236.03 119.49 235.23 115.10 C 242.82 116.50 250.18 116.50 257.77 115.10 C 256.96 119.49 248.45 116.95 249.25 122.01 C 252.77 121.81 256.16 120.78 259.64 120.28 C 260.96 125.35 249.85 120.59 252.27 126.79 C 255.37 127.04 258.32 125.86 261.29 125.15 C 260.77 129.47 253.40 126.99 253.96 132.02 C 257.50 131.42 261.02 130.68 264.65 131.00 C 266.75 135.85 256.72 131.76 256.11 135.10 C 255.28 140.16 261.59 136.42 264.27 136.20 C 263.08 140.09 256.44 138.62 257.28 144.07 C 258.98 145.99 265.62 139.38 267.64 141.96 C 264.29 146.29 252.49 146.03 252.98 153.58 C 257.53 153.36 263.73 143.04 267.00 147.94 C 262.33 150.74 256.43 152.76 254.12 158.18 C 259.19 156.16 262.78 150.67 268.67 150.94 C 266.22 155.09 257.29 155.27 255.79 161.84 C 266.41 157.12 274.87 149.31 282.99 140.89 C 272.79 143.04 277.35 139.54 282.14 136.91 C 265.88 137.81 291.51 128.64 275.57 130.61 C 268.35 128.65 286.86 126.97 279.20 124.48 C 267.24 128.68 273.90 121.21 280.81 121.80 C 282.06 116.13 272.06 121.86 271.82 117.09 C 274.55 114.27 284.01 119.63 280.73 113.17 C 276.45 113.70 267.55 111.42 275.87 110.92 C 291.13 111.47 265.37 107.00 276.45 105.63 C 271.47 103.71 261.27 103.56 254.64 105.61 C 243.55 112.47 232.44 99.82 220.33 104.64 M 184.87 112.51 C 179.35 113.73 173.58 118.55 174.06 124.69 C 178.97 124.64 176.72 115.20 183.13 115.12 C 193.03 111.77 198.39 124.77 200.23 131.63 C 202.13 124.68 194.66 111.61 184.87 112.51 M 307.97 112.49 C 298.30 112.05 290.77 124.42 292.84 131.71 C 294.65 125.17 299.28 112.56 309.19 114.81 C 315.96 114.73 313.98 124.45 318.95 124.69 C 319.39 118.52 313.56 113.63 307.97 112.49 M 207.18 114.14 C 201.65 122.74 215.17 115.30 207.18 114.14 M 284.20 114.22 C 280.51 120.69 292.22 117.45 284.20 114.22 M 207.58 120.16 C 205.22 125.54 206.18 134.95 207.76 138.61 C 208.19 134.02 211.41 122.40 207.58 120.16 M 283.32 120.24 C 284.81 125.96 282.73 134.86 285.94 138.64 C 285.33 134.44 290.13 121.41 283.32 120.24 M 184.43 126.89 C 183.45 134.50 180.68 142.73 185.05 149.86 C 188.11 153.91 181.05 157.17 179.89 152.18 C 176.52 144.27 166.67 145.43 161.36 150.33 C 161.50 155.10 174.84 151.16 169.45 157.46 C 160.13 155.99 148.62 159.95 145.85 169.85 C 155.63 158.50 172.09 159.91 182.77 169.20 C 205.51 190.09 211.51 224.81 237.77 242.30 C 236.57 238.85 234.13 233.55 237.76 230.85 C 238.04 235.10 236.92 242.58 241.87 243.91 C 241.25 240.67 240.13 237.45 240.45 234.11 C 245.54 234.83 240.10 244.58 246.01 246.01 C 243.04 237.99 249.98 238.00 246.96 246.00 C 253.15 244.65 247.36 234.86 252.57 234.08 C 252.85 237.44 251.75 240.66 251.13 243.91 C 256.05 242.59 255.03 235.11 255.15 230.87 C 259.86 232.86 254.43 240.68 255.99 241.98 C 276.39 227.26 285.18 202.26 298.97 181.98 C 308.27 165.73 332.12 152.90 347.16 169.85 C 345.54 163.19 338.82 159.15 332.62 157.47 C 329.03 156.88 321.16 159.69 322.38 153.66 C 325.84 153.43 329.32 152.91 332.28 150.94 C 326.86 145.84 316.91 143.54 313.09 152.14 C 312.01 157.19 304.87 153.93 307.95 149.86 C 312.47 142.45 309.37 133.89 308.42 126.02 C 300.76 134.96 295.20 145.44 297.55 157.53 C 291.97 164.48 285.87 171.38 281.51 179.44 C 276.05 184.60 278.18 168.74 274.48 168.42 C 266.50 177.66 260.31 191.95 265.70 203.83 C 264.11 207.31 260.96 205.11 259.05 203.25 C 251.62 209.53 253.93 219.18 250.73 226.74 C 234.42 233.32 244.06 206.65 233.41 203.71 C 231.79 206.00 227.45 206.71 227.49 203.13 C 232.46 191.48 226.33 177.43 218.52 168.42 C 214.80 168.77 216.98 184.62 211.46 179.46 C 207.52 171.17 200.83 164.61 195.45 157.53 C 197.76 146.18 192.07 132.37 184.43 126.89 M 243.80 126.54 C 244.60 136.54 254.38 123.57 243.80 126.54 M 241.08 131.13 C 241.05 139.06 251.95 139.06 251.92 131.13 C 247.71 133.84 245.28 133.84 241.08 131.13 M 198.10 135.87 C 215.38 153.45 234.17 170.82 246.85 191.80 C 258.70 169.69 278.06 153.76 294.87 135.85 C 276.41 149.29 260.84 166.61 246.85 184.62 C 232.02 167.50 216.96 149.05 198.10 135.87 M 239.16 137.02 C 240.59 147.69 249.81 138.31 239.16 137.02 M 251.54 137.32 C 249.43 138.16 247.66 140.30 248.18 142.67 C 251.78 144.36 256.57 135.84 251.54 137.32 M 237.43 142.39 C 234.05 145.15 239.54 148.01 241.95 148.92 C 244.39 145.90 239.99 141.96 237.43 142.39 M 254.47 142.36 C 252.24 143.36 249.07 145.50 250.76 148.29 C 252.99 150.64 259.01 142.45 254.47 142.36 M 245.30 147.27 C 242.92 152.96 252.86 147.03 245.30 147.27 M 205.95 147.99 C 204.95 156.92 207.41 166.64 212.24 174.30 C 216.20 172.92 212.92 163.84 218.54 165.23 C 222.11 167.81 224.69 172.12 229.64 172.19 C 223.69 162.50 214.76 154.99 205.95 147.99 M 286.38 148.38 C 277.84 155.31 269.27 162.88 263.25 172.13 C 268.29 172.27 270.85 167.81 274.46 165.23 C 280.23 163.61 276.59 173.36 280.77 174.04 C 285.36 167.31 289.59 154.36 286.38 148.38 M 242.31 156.39 C 236.36 163.23 238.67 174.96 246.70 178.66 C 255.57 174.07 255.93 163.21 250.75 156.34 C 246.54 159.44 249.74 167.07 247.70 171.88 C 241.04 171.66 247.27 158.79 242.31 156.39 M 144.43 172.33 C 138.33 179.29 146.34 176.75 144.43 172.33 M 347.89 171.90 C 348.61 180.19 354.01 176.43 347.89 171.90 M 226.75 174.01 C 228.76 180.94 233.90 175.63 226.75 174.01 M 265.49 174.30 C 257.62 177.89 267.17 178.44 265.49 174.30 M 154.10 177.40 C 152.42 180.85 153.58 188.69 147.13 187.72 C 153.26 193.59 160.65 180.81 154.10 177.40 M 338.19 177.21 C 332.87 182.74 340.00 192.70 345.87 187.72 C 338.69 188.98 341.50 179.54 338.19 177.21 M 230.07 180.71 C 230.39 188.07 236.21 182.44 230.07 180.71 M 261.30 181.25 C 256.46 188.05 266.31 181.64 261.30 181.25 M 236.18 182.82 C 237.43 194.51 240.79 207.38 246.88 216.83 C 251.49 206.03 256.34 194.69 256.73 182.81 C 252.01 186.11 250.17 192.02 246.84 196.55 C 242.55 193.26 241.37 185.80 236.18 182.82 M 182.05 186.45 C 180.74 186.48 180.53 188.16 179.92 189.03 C 201.87 201.73 207.57 232.68 231.62 242.29 C 221.46 230.83 210.79 219.19 203.90 205.11 C 198.87 197.07 193.92 183.95 182.05 186.45 M 304.51 186.53 C 288.77 196.28 285.81 217.86 271.97 229.98 C 269.03 234.60 264.26 237.80 261.37 242.29 C 285.43 232.84 291.11 201.61 313.08 189.03 C 312.25 184.95 307.32 186.64 304.51 186.53 M 162.45 198.39 C 155.53 197.38 151.24 203.03 149.76 208.86 C 153.35 202.73 162.59 198.94 168.15 204.97 C 171.60 209.82 161.81 208.51 162.07 213.08 C 166.46 219.60 182.86 236.55 185.00 218.00 C 197.45 229.75 208.23 245.36 224.77 252.18 C 200.33 238.69 190.61 204.92 162.45 198.39 M 329.24 198.31 C 302.23 206.46 291.89 238.91 268.41 252.08 C 284.90 245.55 295.49 229.48 308.00 218.00 C 310.14 236.55 326.54 219.60 330.93 213.08 C 331.18 208.58 322.61 210.08 324.42 205.63 C 329.22 198.64 339.85 202.48 343.23 208.98 C 341.86 201.89 336.77 197.20 329.24 198.31 M 199.47 218.24 C 199.44 222.74 204.01 217.05 199.47 218.24 M 292.17 218.00 C 288.91 221.69 296.83 218.64 292.17 218.00 M 201.54 225.22 C 201.42 230.33 206.61 224.97 201.54 225.22 M 290.24 225.13 C 285.90 229.38 294.86 226.12 290.24 225.13 M 207.07 226.50 C 205.78 238.24 222.44 246.33 231.76 250.73 C 226.59 241.28 214.97 233.50 207.07 226.50 M 285.22 226.22 C 278.00 234.88 266.07 240.90 261.24 250.73 C 270.60 246.75 288.01 237.02 285.22 226.22 M 134.57 234.59 C 125.02 242.91 134.06 256.91 143.87 259.85 C 165.78 266.75 189.62 266.64 210.24 277.82 C 197.42 266.12 177.53 264.47 160.96 260.65 C 160.88 256.89 167.35 256.61 165.90 252.21 C 163.76 243.11 152.64 247.02 146.85 242.18 C 139.94 241.77 147.46 253.81 140.02 251.51 C 130.63 250.25 134.50 235.46 134.57 234.59 M 357.23 233.70 C 362.53 239.95 358.86 253.71 349.32 251.23 C 349.36 248.10 350.70 241.00 345.44 242.44 C 339.89 246.98 329.12 243.57 327.13 252.15 C 325.61 256.59 332.13 256.88 332.04 260.66 C 315.42 264.60 295.71 266.06 282.76 277.82 C 303.41 266.73 327.18 266.57 349.13 259.85 C 359.57 256.96 368.50 241.29 357.23 233.70 M 196.57 237.24 C 196.03 243.14 201.82 238.47 196.57 237.24 M 295.41 237.30 C 290.75 242.77 299.64 238.70 295.41 237.30 M 191.02 237.99 C 194.81 247.07 200.64 240.59 191.02 237.99 M 300.48 238.37 C 297.61 238.68 296.52 241.53 295.78 243.91 C 297.76 243.19 304.44 238.28 300.48 238.37 M 189.39 241.42 C 186.91 243.74 186.59 247.36 190.01 248.91 C 183.92 245.39 180.62 255.60 188.37 254.63 C 196.36 256.04 180.59 249.46 188.37 250.62 C 196.33 253.98 192.40 247.14 189.01 243.95 C 197.07 250.14 196.15 242.84 189.39 241.42 M 202.15 241.07 C 199.04 249.35 194.49 256.92 189.22 264.01 C 195.05 267.18 201.07 270.83 207.75 271.71 C 208.83 269.87 207.14 263.88 210.45 266.56 C 217.80 275.35 228.27 281.82 238.51 285.71 C 237.91 297.80 237.57 310.17 241.76 321.81 C 230.41 314.40 234.42 332.62 232.97 339.77 C 241.97 339.04 250.98 339.23 259.98 339.90 C 257.65 332.92 263.05 314.09 251.22 321.81 C 255.48 310.20 255.02 297.72 254.50 285.74 C 266.01 281.54 275.66 273.72 284.47 265.62 C 283.40 278.30 298.11 265.46 303.85 263.98 C 298.73 256.80 293.71 249.53 290.86 241.07 C 285.85 244.95 267.33 250.49 278.93 257.03 C 266.96 259.65 255.76 265.39 246.16 272.65 C 237.08 264.51 225.70 259.90 214.07 257.03 C 225.67 250.49 207.16 244.97 202.15 241.07 M 302.42 241.29 C 295.74 245.47 297.27 248.67 303.99 243.95 C 301.33 246.74 296.20 253.64 303.85 250.84 C 313.13 248.69 296.05 256.60 305.31 254.54 C 312.69 255.01 308.43 245.37 302.99 248.91 C 307.07 247.66 305.66 241.45 302.42 241.29 M 116.20 241.86 C 119.23 248.04 111.42 250.06 110.27 253.99 C 117.52 255.88 122.33 246.24 116.20 241.86 M 376.22 242.35 C 368.97 247.11 379.24 258.18 382.83 252.42 C 377.76 251.29 375.86 244.63 376.22 242.35 M 104.49 243.33 C 95.58 248.73 104.24 248.88 104.49 243.33 M 387.80 243.06 C 391.51 251.44 395.92 246.42 387.80 243.06 M 234.38 248.12 C 234.24 253.77 244.32 254.56 246.23 259.61 C 237.72 257.01 227.17 250.96 219.31 256.03 C 228.28 257.58 238.35 263.63 246.84 268.46 C 254.86 262.87 265.00 257.81 273.65 256.03 C 265.75 250.96 255.39 257.54 246.79 259.62 C 248.67 254.54 258.70 253.80 258.64 248.11 C 250.34 250.51 242.68 250.23 234.38 248.12 M 99.43 250.45 C 94.40 254.41 94.40 263.10 95.99 268.70 C 97.56 272.00 103.83 277.39 98.17 279.88 C 96.16 275.41 86.64 268.54 90.43 279.31 C 89.83 288.99 100.77 286.96 105.98 290.09 C 101.13 297.69 85.95 296.01 81.13 305.85 C 86.95 304.55 92.60 307.51 98.47 306.53 C 105.95 306.61 110.50 297.59 118.20 299.61 C 125.98 302.53 135.23 301.31 142.69 303.19 C 141.53 306.91 135.51 309.44 134.11 313.86 C 147.75 317.47 161.74 311.10 171.86 303.97 C 170.73 323.49 200.17 293.04 201.79 312.85 C 195.65 317.93 178.77 328.90 190.00 334.88 C 177.98 339.87 165.43 349.08 162.16 363.08 C 166.86 362.40 171.42 361.01 176.09 360.17 C 172.50 369.30 167.77 378.39 164.76 387.72 C 152.92 391.72 146.82 402.01 142.98 413.09 C 150.85 408.73 161.33 407.48 165.19 398.11 C 169.19 398.13 169.73 401.83 167.53 404.54 C 163.08 411.20 169.07 419.76 176.10 420.80 C 176.67 417.60 171.02 407.04 178.12 410.69 C 181.27 419.45 190.54 427.09 199.97 424.34 C 184.80 421.04 177.21 404.60 181.61 389.99 C 189.59 361.61 214.17 339.95 217.03 309.69 C 214.65 310.09 211.75 316.09 207.28 315.22 C 209.97 311.35 216.79 310.03 217.19 304.22 C 215.32 306.39 204.75 313.08 209.92 306.97 C 217.94 301.74 217.31 299.28 210.09 303.06 C 217.85 295.62 210.16 299.13 203.04 301.01 C 203.11 296.53 211.17 298.97 211.77 294.79 C 206.84 295.12 202.36 297.21 197.88 299.10 C 199.06 294.48 204.62 294.70 208.15 293.21 C 178.96 279.29 145.02 292.94 115.32 281.67 C 101.82 277.34 95.91 261.16 99.43 250.45 M 392.82 250.31 C 399.14 264.83 387.17 279.58 373.23 283.44 C 344.48 290.72 313.71 281.26 285.51 292.37 C 285.54 296.05 294.78 293.41 295.10 299.16 C 290.77 296.82 286.17 294.88 281.16 294.76 C 281.75 298.99 289.88 296.49 289.95 301.01 C 282.83 299.13 275.15 295.62 282.91 303.06 C 275.70 299.28 275.03 301.75 283.08 306.96 C 288.27 313.24 277.40 306.20 275.78 304.32 C 276.13 310.00 283.68 311.11 285.62 315.13 C 280.97 315.69 279.02 310.99 275.67 309.19 C 278.95 339.84 303.48 361.80 311.64 390.59 C 315.64 405.22 307.73 420.82 293.50 424.43 C 301.24 426.92 313.06 419.41 315.47 410.04 C 323.35 407.57 311.59 425.77 321.09 419.11 C 334.28 415.37 318.62 400.79 327.82 398.13 C 331.81 407.31 341.80 409.37 350.03 413.07 C 346.17 402.01 340.08 391.72 328.24 387.72 C 325.50 378.29 320.43 369.34 316.89 360.17 C 321.53 361.15 326.08 362.56 330.80 363.12 C 327.03 350.98 317.40 339.18 304.44 336.69 C 301.05 334.22 305.32 332.40 307.62 331.78 C 305.55 323.01 297.82 318.06 291.16 312.90 C 293.31 292.70 321.13 324.17 321.12 303.95 C 331.25 311.11 345.16 317.53 358.88 313.97 C 357.60 309.25 349.60 307.22 350.66 302.51 C 362.74 304.66 376.18 294.56 386.50 303.55 C 393.99 309.52 403.45 304.52 411.88 305.85 C 406.45 297.14 393.23 295.59 386.95 290.09 C 392.60 287.17 403.44 288.58 402.82 278.64 C 405.42 268.09 396.74 276.18 394.82 279.89 C 388.78 276.80 396.40 271.31 397.83 267.37 C 397.66 262.24 398.77 252.77 392.82 250.31 M 181.79 254.38 C 181.32 260.24 194.28 256.63 181.79 254.38 M 310.46 254.58 C 297.38 257.90 314.63 258.59 310.46 254.58 M 179.59 259.13 C 179.97 263.55 184.08 257.58 179.59 259.13 M 311.35 259.21 C 310.74 263.58 316.11 257.34 311.35 259.21 M 183.62 260.21 C 185.43 264.02 187.88 257.61 183.62 260.21 M 306.62 260.21 C 308.43 264.02 310.88 257.61 306.62 260.21 M 132.04 270.37 C 131.30 279.64 141.65 282.68 149.20 282.75 C 167.99 282.32 187.07 283.06 205.07 288.87 C 185.64 272.48 154.64 281.65 132.04 270.37 M 175.46 270.33 C 176.64 274.99 180.71 268.94 175.46 270.33 M 210.85 270.37 C 209.56 279.07 221.09 285.62 226.61 292.30 C 220.88 292.04 217.50 285.76 211.31 286.78 C 215.28 294.10 221.86 299.95 223.23 308.85 C 229.36 307.46 224.06 295.65 227.75 293.20 C 230.87 301.86 228.52 313.86 238.79 318.31 C 234.24 308.59 234.60 297.68 235.66 287.25 C 225.68 284.91 217.62 277.34 210.85 270.37 M 281.44 270.52 C 275.29 278.08 267.08 284.94 257.40 287.16 C 258.49 297.61 258.35 308.51 254.24 318.33 C 264.17 313.70 262.92 302.01 265.15 293.16 C 269.36 295.31 263.79 308.60 269.60 308.77 C 272.16 301.10 274.78 293.62 281.28 288.31 C 278.79 282.80 270.01 294.14 266.56 291.58 C 272.44 286.08 284.51 276.82 281.44 270.52 M 316.26 270.02 C 310.71 272.86 320.96 271.79 316.26 270.02 M 360.00 270.58 C 337.74 282.02 307.05 272.59 287.95 288.87 C 305.57 283.00 324.29 282.32 342.69 282.69 C 350.30 283.71 363.52 278.26 360.00 270.58 M 168.47 272.24 C 168.44 276.74 173.01 271.05 168.47 272.24 M 182.54 272.22 C 180.87 273.26 177.34 276.89 181.37 276.67 C 192.03 277.09 202.34 285.38 211.81 284.17 C 205.10 276.85 192.54 273.33 182.54 272.22 M 307.37 272.28 C 298.85 275.33 285.43 276.49 281.27 285.00 C 292.26 282.98 302.55 277.57 313.82 276.16 C 312.69 273.67 310.37 271.13 307.37 272.28 M 323.17 272.00 C 319.91 275.69 327.83 272.64 323.17 272.00 M 74.30 297.33 C 66.49 301.22 66.86 315.94 75.96 318.35 C 81.56 320.72 90.13 320.83 93.79 315.84 C 85.23 319.69 69.22 318.57 70.36 306.25 C 68.66 302.09 78.76 298.93 74.30 297.33 M 417.98 297.30 C 415.84 300.02 424.45 302.30 422.67 306.92 C 422.95 319.09 407.52 319.38 399.16 315.84 C 403.07 321.21 411.30 320.12 417.03 318.43 C 426.29 316.03 426.65 299.99 417.98 297.30 M 131.00 305.45 C 123.95 306.22 117.39 309.18 111.01 312.11 C 118.95 319.44 132.54 319.56 143.03 322.07 C 141.69 315.78 133.67 317.91 130.02 313.93 C 133.35 310.97 139.53 303.47 131.00 305.45 M 357.76 305.46 C 355.92 308.07 361.79 311.13 363.04 313.94 C 359.44 318.03 351.57 316.06 349.89 322.00 C 360.50 319.80 372.66 318.50 381.83 312.88 C 376.04 308.33 366.03 304.77 357.76 305.46 M 226.34 309.81 C 221.44 319.65 221.48 332.00 217.80 342.72 C 230.04 340.34 228.43 317.57 226.34 309.81 M 264.99 310.27 C 266.74 319.90 262.59 340.32 275.19 342.71 C 270.52 332.76 272.78 315.55 264.99 310.27 M 95.89 311.95 C 116.39 322.08 140.33 327.27 163.31 329.39 C 154.28 350.41 146.46 374.86 144.68 395.77 C 151.68 372.20 156.40 347.68 168.93 326.07 C 143.71 326.42 119.84 318.66 95.89 311.95 M 395.49 312.26 C 372.12 319.06 348.66 326.67 323.96 326.02 C 336.58 347.62 341.60 372.10 348.33 395.76 C 346.50 374.89 338.79 350.39 329.65 329.42 C 351.75 327.51 373.18 321.46 394.05 314.18 C 395.48 314.08 398.68 311.07 395.49 312.26 M 182.66 314.51 C 173.75 316.30 163.51 316.94 156.00 322.16 C 161.29 324.21 167.12 322.99 172.60 323.98 C 170.63 329.35 167.31 334.20 165.81 339.75 C 175.66 334.22 183.06 324.61 189.21 315.33 C 191.63 311.56 182.65 316.18 182.66 314.51 M 219.16 314.13 C 215.88 335.42 202.23 352.77 193.94 372.08 C 191.78 376.71 193.91 386.04 199.88 385.60 C 199.70 360.34 224.36 338.12 219.16 314.13 M 272.98 314.01 C 270.32 339.78 292.37 360.51 293.73 386.02 C 303.56 382.58 299.26 369.37 295.02 362.95 C 285.48 347.85 277.81 330.37 272.98 314.01 M 303.69 313.82 C 307.88 324.14 317.59 333.51 327.17 339.75 C 325.71 334.20 322.34 329.39 320.47 324.00 C 325.44 322.73 333.27 324.59 336.67 321.42 C 326.27 317.02 314.96 314.34 303.69 313.82 M 231.02 315.18 C 231.39 338.63 218.11 358.98 214.14 381.53 C 211.36 391.61 220.83 407.99 232.26 400.48 C 223.92 403.47 216.23 393.68 220.24 386.21 C 223.89 384.82 225.93 390.62 229.67 388.75 C 233.21 380.93 238.78 359.70 222.26 366.50 C 225.35 349.81 236.34 330.34 231.02 315.18 M 261.13 315.32 C 258.33 331.39 267.13 349.96 270.72 366.50 C 253.61 359.85 260.45 380.39 263.35 388.73 C 267.06 390.67 269.11 384.79 272.77 386.20 C 276.90 393.78 269.04 403.30 260.75 400.48 C 272.93 408.16 282.51 390.03 278.51 379.70 C 273.38 358.24 262.39 336.36 261.13 315.32 M 152.36 317.35 C 153.00 322.72 158.54 314.36 152.36 317.35 M 337.49 317.19 C 338.39 322.66 343.62 314.82 337.49 317.19 M 101.60 318.46 C 96.94 321.67 92.13 324.63 87.12 327.24 C 87.74 335.27 93.87 324.77 97.75 323.64 C 100.25 323.42 106.81 317.49 101.60 318.46 M 144.37 317.94 C 146.08 324.00 152.32 317.36 144.37 317.94 M 345.45 318.21 C 340.46 324.15 354.46 316.74 345.45 318.21 M 389.22 318.07 C 392.18 323.95 400.55 326.17 404.96 330.89 C 406.91 324.08 394.11 321.30 389.22 318.07 M 107.03 320.20 C 108.12 323.04 112.34 329.36 107.24 324.71 C 102.48 320.37 103.25 326.48 105.72 329.30 C 98.80 323.69 96.89 328.03 102.02 334.03 C 98.84 331.32 91.48 326.12 95.97 334.03 C 103.01 345.23 83.53 323.51 91.25 336.75 C 95.20 346.18 88.25 337.86 86.00 334.43 C 81.29 336.14 87.54 341.05 87.83 344.18 C 83.21 344.53 84.33 337.98 80.71 337.06 C 81.62 340.69 83.78 349.39 78.83 342.93 C 81.17 352.94 88.01 361.02 95.84 367.37 C 99.71 379.16 102.22 394.48 114.91 400.13 C 112.02 397.74 103.62 388.42 112.37 394.67 C 119.99 399.98 111.55 391.97 111.97 388.21 C 116.24 388.00 115.40 396.59 120.42 394.77 C 120.61 391.50 117.39 388.52 117.04 385.07 C 121.08 384.96 120.55 392.33 125.02 391.92 C 124.43 388.66 123.27 385.52 122.89 382.22 C 126.96 381.79 124.98 390.47 129.90 388.93 C 128.23 384.76 127.76 377.13 131.30 384.74 C 136.61 393.13 132.38 374.27 136.71 382.36 C 140.51 387.18 139.84 379.96 138.79 377.12 C 142.44 376.90 140.19 384.09 143.89 382.73 C 145.52 371.48 149.24 360.96 147.88 350.03 C 141.72 351.46 147.95 363.53 145.00 366.05 C 140.88 362.84 144.00 355.13 144.19 350.09 C 138.31 352.39 143.05 362.87 140.23 367.16 C 136.61 362.45 139.39 356.16 139.97 350.99 C 131.96 352.80 136.66 364.41 137.15 369.94 C 132.07 369.52 135.59 354.87 130.14 362.33 C 131.84 366.82 129.62 372.07 128.02 364.99 C 123.91 357.32 123.87 369.38 126.84 372.81 C 121.25 372.69 124.57 362.50 119.09 363.01 C 120.51 365.15 120.05 376.70 117.62 369.41 C 118.22 363.24 110.56 362.31 113.99 369.03 C 116.47 377.07 110.40 369.52 110.64 365.39 C 104.57 358.62 111.94 382.28 106.68 372.12 C 107.04 363.88 99.21 360.96 96.84 354.18 C 100.70 355.13 102.47 359.85 106.75 359.79 C 106.22 355.91 101.53 354.05 100.95 350.08 C 104.26 350.73 106.28 357.13 109.91 354.02 C 108.96 350.71 104.87 349.40 104.02 345.97 C 107.74 346.25 109.07 351.09 112.98 350.84 C 112.81 346.43 107.10 344.69 106.98 340.03 C 110.85 340.49 111.91 348.72 115.93 345.96 C 119.67 343.03 108.34 339.70 113.80 338.14 C 115.96 340.34 118.56 343.43 121.79 340.92 C 121.09 337.26 114.71 337.10 114.62 332.36 C 120.02 334.51 127.04 344.04 132.72 339.35 C 129.35 337.41 122.09 336.02 119.87 331.01 C 125.12 333.13 129.97 336.56 135.75 337.11 C 132.84 332.55 123.76 333.59 122.17 326.84 C 127.42 329.02 131.76 333.51 137.73 333.81 C 130.13 326.79 117.97 322.80 107.03 320.20 M 384.59 320.47 C 374.23 323.47 362.49 326.93 355.27 333.80 C 361.23 333.51 365.57 329.02 370.83 326.84 C 369.13 333.52 360.44 332.64 357.07 337.08 C 362.97 336.57 367.57 332.69 373.00 330.96 C 371.17 336.10 363.54 337.34 360.29 339.35 C 365.91 344.05 372.86 334.47 378.22 332.21 C 378.63 337.17 371.80 337.20 371.22 340.92 C 374.45 343.43 377.04 340.34 379.20 338.14 C 384.66 339.70 373.32 343.03 377.07 345.96 C 381.09 348.72 382.15 340.49 386.02 340.03 C 385.90 344.69 380.18 346.43 380.02 350.84 C 383.93 351.09 385.25 346.25 388.98 345.97 C 388.13 349.40 384.04 350.71 383.09 354.02 C 386.74 357.18 388.71 350.65 392.07 350.10 C 391.85 354.24 386.27 355.83 386.35 359.71 C 390.59 360.00 392.29 355.00 396.15 354.17 C 393.79 360.96 385.96 363.88 386.31 372.12 C 382.70 380.18 384.94 366.83 385.09 364.26 C 379.95 363.26 383.00 372.93 378.04 373.07 C 378.68 370.06 379.62 367.10 379.95 364.03 C 373.84 362.26 377.51 372.23 373.00 371.85 C 372.31 369.00 376.64 361.29 371.36 363.33 C 370.09 366.47 370.26 372.34 366.16 372.81 C 366.48 369.59 370.04 365.67 368.22 362.93 C 364.01 358.81 365.24 372.05 362.14 367.97 C 365.76 361.98 356.70 355.46 358.43 366.22 C 352.49 377.18 362.77 350.68 353.09 350.89 C 353.85 356.16 355.98 362.05 352.91 367.00 C 349.23 363.30 354.83 352.22 348.81 350.05 C 348.82 355.10 352.86 364.26 347.13 366.19 C 347.30 361.14 350.24 352.14 345.17 349.95 C 343.71 359.68 346.76 368.87 348.47 378.48 C 348.52 392.26 354.96 369.72 353.61 380.53 C 352.05 387.52 356.69 381.18 358.99 380.11 C 356.50 384.72 360.38 390.23 362.36 383.31 C 366.28 377.38 363.80 386.17 363.10 388.93 C 368.02 390.47 366.03 381.79 370.11 382.22 C 369.73 385.52 368.57 388.66 367.98 391.92 C 372.44 392.33 371.91 384.96 375.96 385.07 C 375.61 388.52 372.39 391.50 372.58 394.77 C 377.59 396.58 376.76 388.00 381.03 388.21 C 381.02 391.65 378.16 394.01 376.83 396.97 C 379.85 395.79 381.99 393.20 384.90 391.83 C 384.10 395.68 380.26 397.26 378.05 400.12 C 390.13 394.79 394.19 379.73 396.74 367.86 C 404.73 361.42 411.75 353.12 414.17 342.93 C 409.22 349.40 411.37 340.68 412.28 337.05 C 408.76 338.17 409.70 344.13 405.29 344.34 C 409.85 341.34 409.19 329.16 404.45 337.53 C 400.64 345.91 399.10 338.75 403.00 334.93 C 405.44 326.96 396.34 339.58 395.18 337.25 C 396.03 334.82 401.79 329.14 396.39 329.21 C 394.12 333.85 388.63 335.34 393.54 329.55 C 398.67 321.10 383.65 333.10 388.62 326.66 C 391.71 322.23 386.67 322.76 384.61 325.62 C 379.59 329.42 388.55 319.26 384.59 320.47 M 60.84 327.03 C 65.77 333.05 70.37 327.99 60.84 327.03 M 430.57 327.42 C 418.63 330.68 434.41 330.01 430.57 327.42 M 56.08 328.05 C 45.59 347.09 57.86 368.70 72.11 382.04 C 76.83 400.67 88.81 423.44 110.85 422.56 C 90.99 416.93 79.88 397.48 74.10 379.03 C 59.80 366.52 52.55 345.07 56.08 328.05 M 84.40 328.39 C 78.31 336.02 89.83 329.92 84.40 328.39 M 407.43 327.59 C 405.75 335.67 414.64 331.47 407.43 327.59 M 436.09 327.95 C 441.45 346.86 432.12 366.66 418.44 379.62 C 413.73 398.78 400.14 416.39 382.30 423.21 C 404.39 422.69 416.21 400.96 420.89 382.04 C 435.13 368.86 448.19 345.77 436.09 327.95 M 60.29 331.29 C 55.58 345.48 63.66 362.29 73.48 373.45 C 74.40 370.22 70.43 350.43 80.20 354.72 C 77.17 347.35 72.30 336.63 79.99 330.65 C 74.46 333.72 66.45 331.14 62.42 336.52 C 58.47 338.87 64.90 329.35 60.29 331.29 M 143.70 331.30 C 140.31 333.64 137.86 337.19 135.59 340.60 C 141.99 342.09 145.82 335.42 151.76 335.43 C 152.11 342.22 140.57 341.08 140.23 348.15 C 151.11 349.70 156.64 341.72 157.82 332.10 C 153.15 331.46 148.42 331.00 143.70 331.30 M 340.89 331.53 C 327.64 331.89 344.24 354.53 352.54 347.40 C 351.82 340.88 340.76 341.83 341.25 335.45 C 347.18 335.38 351.01 342.12 357.41 340.59 C 353.84 334.59 348.84 328.31 340.89 331.53 M 412.97 330.68 C 420.77 336.54 415.80 347.36 412.81 354.70 C 422.62 350.57 418.65 370.22 419.51 373.47 C 429.43 362.26 436.37 346.97 433.52 331.74 C 427.78 327.75 434.75 340.33 430.07 335.92 C 425.87 331.07 418.46 333.19 412.97 330.68 M 123.32 341.24 C 116.55 343.79 129.72 349.27 128.79 343.31 C 127.12 342.42 125.29 340.92 123.32 341.24 M 368.26 341.30 C 355.54 347.37 379.45 345.43 368.26 341.30 M 168.39 342.34 C 162.85 348.65 173.65 342.77 168.39 342.34 M 323.00 341.84 C 323.57 348.73 329.32 343.42 323.00 341.84 M 234.36 343.25 C 228.99 352.81 235.88 349.66 234.36 343.25 M 238.35 343.24 C 235.48 344.17 236.80 349.18 236.01 351.06 C 239.37 351.77 239.53 343.39 238.35 343.24 M 241.32 343.19 C 236.23 350.58 243.57 356.00 246.95 346.23 C 244.43 353.45 257.37 353.08 252.68 346.33 C 250.70 339.37 249.51 346.13 251.06 349.87 C 248.32 348.47 246.16 337.50 244.26 347.26 C 240.52 355.14 244.47 342.16 241.32 343.19 M 253.81 343.01 C 253.80 355.36 260.60 347.81 253.81 343.01 M 257.84 343.09 C 258.84 353.09 263.61 349.58 257.84 343.09 M 221.16 345.33 C 216.84 348.94 224.32 348.69 221.16 345.33 M 271.33 345.46 C 269.94 350.71 275.99 346.64 271.33 345.46 M 118.20 346.13 C 119.90 356.28 130.70 345.24 118.20 346.13 M 131.11 346.38 C 127.15 350.90 136.40 349.23 131.11 346.38 M 361.30 346.44 C 357.25 351.44 366.54 348.55 361.30 346.44 M 371.51 346.27 C 359.77 353.41 383.05 348.40 371.51 346.27 M 163.14 347.21 C 160.56 356.03 168.79 347.95 163.14 347.21 M 328.01 346.98 C 326.51 355.38 333.80 349.03 328.01 346.98 M 150.40 350.58 C 146.20 355.50 153.41 354.73 150.40 350.58 M 216.17 350.33 C 211.83 354.96 218.97 354.69 216.17 350.33 M 219.25 350.43 C 215.44 353.49 222.82 352.91 219.25 350.43 M 273.13 350.59 C 271.58 355.08 277.55 350.97 273.13 350.59 M 276.41 350.43 C 274.98 356.59 281.06 352.85 276.41 350.43 M 342.19 350.64 C 340.45 356.58 346.76 353.55 342.19 350.64 M 114.05 351.29 C 115.48 354.93 121.12 355.21 118.22 360.99 C 125.27 360.28 121.15 347.93 114.05 351.29 M 159.32 351.44 C 156.18 361.85 151.68 371.92 151.15 382.97 C 159.20 380.06 168.00 372.90 170.08 364.21 C 166.74 364.66 163.52 366.00 160.11 365.83 C 158.81 362.05 164.62 352.57 159.32 351.44 M 332.14 351.28 C 331.14 358.81 335.72 369.91 323.72 364.35 C 322.49 370.94 335.12 380.64 341.81 382.95 C 340.04 372.95 338.46 358.35 332.14 351.28 M 374.04 351.45 C 369.58 352.52 370.27 361.48 374.78 360.99 C 370.43 354.84 385.06 350.60 374.04 351.45 M 131.21 351.96 C 125.02 365.23 140.89 355.45 131.21 351.96 M 359.02 352.06 C 357.10 367.50 368.53 351.93 359.02 352.06 M 47.28 353.45 C 39.12 354.65 37.69 363.62 34.20 369.64 C 42.98 367.69 33.09 381.49 40.31 383.85 C 47.91 388.93 50.45 369.74 57.73 378.24 C 56.02 385.52 45.96 388.53 45.66 397.36 C 51.98 403.30 62.98 392.40 68.75 398.28 C 70.28 407.42 56.52 399.73 55.01 407.29 C 51.22 416.27 70.23 413.87 64.12 421.71 C 71.25 420.56 82.71 425.32 85.07 415.90 C 80.91 420.39 74.41 418.73 69.10 417.95 C 71.68 415.19 79.08 414.88 79.61 408.75 C 73.80 391.75 64.14 375.56 52.64 362.09 C 47.94 361.28 43.21 363.27 41.45 367.75 C 36.22 363.73 49.03 353.86 47.28 353.45 M 125.31 353.08 C 119.52 364.32 133.94 357.29 125.31 353.08 M 365.04 353.01 C 363.60 367.29 374.34 354.21 365.04 353.01 M 444.99 353.32 C 446.05 354.84 455.74 363.70 451.56 367.71 C 441.42 352.19 431.64 375.32 424.53 383.53 C 420.64 394.67 404.91 413.61 423.74 417.12 C 420.84 420.07 411.59 419.88 407.93 415.90 C 410.36 425.50 421.76 420.38 428.89 421.74 C 422.62 413.70 442.89 416.19 437.77 406.60 C 435.36 400.22 421.61 407.06 424.58 397.56 C 430.50 393.73 440.94 402.52 447.22 397.34 C 447.19 388.48 436.88 385.53 435.27 378.24 C 442.45 369.83 445.14 388.89 452.70 383.86 C 459.90 381.44 450.01 367.76 458.79 369.62 C 455.32 363.45 453.34 354.16 444.99 353.32 M 80.54 355.58 C 80.58 363.54 73.83 370.79 77.87 378.79 C 82.55 385.68 92.29 384.94 99.18 387.87 C 96.59 374.78 89.67 364.90 80.54 355.58 M 111.28 355.78 C 111.92 365.83 120.79 355.84 111.28 355.78 M 378.45 356.29 C 372.61 365.63 387.84 355.31 378.45 356.29 M 411.55 356.68 C 402.93 365.93 395.78 374.80 393.78 387.88 C 402.36 384.34 418.09 385.04 416.42 371.52 C 414.77 367.19 413.23 357.01 411.55 356.68 M 46.53 357.20 C 47.69 361.71 56.15 357.75 46.53 357.20 M 443.47 357.23 C 435.43 362.68 453.69 356.59 443.47 357.23 M 76.21 359.62 C 73.61 363.88 80.02 361.43 76.21 359.62 M 416.21 359.62 C 413.61 363.88 420.02 361.43 416.21 359.62 M 30.24 377.20 C 22.51 380.61 24.41 395.38 34.84 390.06 C 43.62 384.52 23.39 391.67 29.49 386.48 C 35.41 387.37 35.25 376.94 30.24 377.20 M 461.30 377.23 C 457.87 379.71 458.17 386.92 463.51 386.48 C 469.61 391.67 449.38 384.52 458.16 390.06 C 469.57 396.20 470.28 377.78 461.30 377.23 M 80.13 384.89 C 84.93 399.07 94.83 413.84 109.88 417.96 C 113.81 415.56 104.79 416.17 106.43 413.22 C 113.39 412.95 115.34 405.21 120.17 401.38 C 110.42 404.10 104.97 394.87 99.50 388.63 C 99.35 399.14 84.41 386.23 80.13 384.89 M 411.56 385.59 C 407.71 387.05 393.18 398.86 393.49 388.64 C 388.00 394.63 382.60 404.56 372.91 401.21 C 375.69 408.52 392.22 413.62 382.21 417.15 C 395.73 418.00 411.23 394.89 411.56 385.59 M 140.53 386.42 C 131.76 390.59 125.73 395.22 120.12 397.92 C 126.39 401.42 130.92 391.94 137.10 391.07 C 140.02 391.61 146.16 385.46 140.53 386.42 M 350.15 386.10 C 352.89 392.34 363.30 393.35 368.52 398.71 C 374.23 400.47 373.07 394.03 367.93 396.74 C 366.87 391.10 356.14 389.26 350.15 386.10 M 91.46 388.33 C 92.64 392.99 96.71 386.94 91.46 388.33 M 400.26 388.02 C 394.71 390.85 404.96 389.79 400.26 388.02 M 39.75 389.64 C 33.98 399.37 21.73 394.07 14.22 400.09 C 22.20 404.52 5.80 409.58 7.72 413.71 C 14.33 415.66 18.82 409.79 24.59 409.42 C 25.02 414.73 14.93 413.14 14.55 419.50 C 7.21 430.19 30.43 412.91 27.46 423.14 C 36.27 421.06 37.16 407.73 47.16 407.27 C 59.29 402.60 31.53 408.55 36.74 399.24 C 36.89 396.16 44.45 387.50 39.75 389.64 M 451.28 388.75 C 453.20 393.26 456.61 397.40 456.75 402.48 C 454.71 406.64 435.39 403.80 445.83 407.27 C 455.81 407.67 456.66 421.12 465.54 423.14 C 463.92 413.98 477.71 426.35 480.48 422.54 C 477.98 417.09 474.14 413.22 468.21 411.68 C 470.33 405.38 481.28 418.35 485.75 413.05 C 484.18 408.18 471.57 404.52 478.77 400.09 C 470.15 394.77 458.23 397.96 451.28 388.75 M 139.55 396.38 C 130.26 399.62 124.76 415.93 134.16 421.95 C 137.46 424.42 146.10 426.62 146.76 421.06 C 137.79 426.28 126.71 416.23 132.28 406.47 C 132.81 402.57 141.83 396.97 139.55 396.38 M 352.07 395.92 C 359.33 401.41 367.27 414.61 356.93 421.08 C 354.25 425.08 342.47 418.05 348.10 423.94 C 366.36 428.92 368.98 399.24 352.07 395.92 M 39.88 397.27 C 40.35 405.73 47.36 399.26 39.88 397.27 M 451.49 397.19 C 444.58 404.92 456.99 400.25 451.49 397.19 M 49.17 401.17 C 48.15 405.80 53.80 400.15 49.17 401.17 M 442.17 401.17 C 441.15 405.80 446.79 400.15 442.17 401.17 M 206.69 408.24 C 195.47 418.77 211.98 406.87 216.21 414.94 C 215.11 410.86 211.72 406.07 206.69 408.24 M 281.68 408.25 C 278.92 409.40 277.67 412.30 276.78 414.95 C 280.50 409.67 286.14 411.74 290.83 414.25 C 290.02 410.25 286.20 406.23 281.68 408.25 M 48.65 409.46 C 39.14 412.03 43.77 426.22 53.45 421.61 C 60.72 419.73 49.47 409.46 46.85 416.86 C 39.84 418.85 52.57 408.10 48.65 409.46 M 442.96 408.88 C 444.68 410.86 451.75 419.50 445.60 416.37 C 442.51 409.36 431.95 421.14 440.23 421.92 C 451.34 425.58 452.63 410.28 442.96 408.88 M 81.45 411.20 C 76.65 419.08 83.78 416.99 81.45 411.20 M 410.74 411.39 C 411.05 420.17 415.94 415.57 410.74 411.39 M 115.35 412.26 C 109.93 420.52 117.43 418.41 115.35 412.26 M 376.89 411.91 C 377.55 423.41 382.62 416.63 376.89 411.91 M 60.25 420.32 C 54.93 422.55 62.93 423.96 60.25 420.32 M 432.22 420.54 C 431.96 425.61 437.33 420.42 432.22 420.54 M 206.46 423.28 C 194.76 426.17 214.27 424.14 206.46 423.28 M 283.94 422.91 C 289.52 427.80 292.97 422.80 283.94 422.91 Z" />
<path fill="#000000" opacity="1.00" d=" M 227.07 60.96 C 229.22 63.64 229.67 67.51 231.81 70.34 C 228.26 68.95 224.98 64.78 227.07 60.96 Z" />
<path fill="#000000" opacity="1.00" d=" M 265.34 61.41 C 268.59 62.71 264.88 69.63 261.19 70.34 C 262.99 67.56 264.03 64.42 265.34 61.41 Z" />
<path fill="#000000" opacity="1.00" d=" M 219.17 62.17 C 223.80 61.15 218.15 66.80 219.17 62.17 Z" />
<path fill="#000000" opacity="1.00" d=" M 222.93 62.28 C 227.01 62.52 225.34 70.35 228.78 72.68 C 224.60 70.91 221.97 66.99 222.93 62.28 Z" />
<path fill="#000000" opacity="1.00" d=" M 268.34 62.19 C 273.33 64.32 268.41 71.98 263.99 72.36 C 266.15 69.25 268.73 66.39 268.34 62.19 Z" />
<path fill="#000000" opacity="1.00" d=" M 272.17 62.17 C 276.80 61.15 271.15 66.80 272.17 62.17 Z" />
<path fill="#000000" opacity="1.00" d=" M 245.55 65.50 C 247.07 65.64 241.60 75.73 246.18 69.44 C 250.80 73.94 247.56 68.95 246.78 65.13 C 251.20 66.82 256.70 77.05 246.93 73.94 C 236.71 76.94 241.44 68.68 245.55 65.50 Z" />
<path fill="#000000" opacity="1.00" d=" M 218.87 66.31 C 222.07 66.73 223.11 70.90 225.02 73.17 C 221.63 72.59 218.23 70.16 218.87 66.31 Z" />
<path fill="#000000" opacity="1.00" d=" M 272.64 66.51 C 276.78 67.01 271.41 73.64 267.98 73.17 C 269.36 70.84 270.93 68.62 272.64 66.51 Z" />
<path fill="#000000" opacity="1.00" d=" M 246.14 97.23 C 257.39 102.42 236.45 104.67 246.14 97.23 Z" />
<path fill="#000000" opacity="1.00" d=" M 239.01 109.42 C 244.33 112.23 249.33 111.40 254.70 109.33 C 253.29 115.92 238.19 114.37 239.01 109.42 Z" />
<path fill="#000000" opacity="1.00" d=" M 194.19 171.23 C 199.15 177.77 190.33 177.73 194.19 171.23 Z" />
<path fill="#000000" opacity="1.00" d=" M 298.13 171.46 C 303.25 174.64 294.60 180.45 298.13 171.46 Z" />
<path fill="#000000" opacity="1.00" d=" M 198.25 176.30 C 203.08 185.64 193.43 184.46 198.25 176.30 Z" />
<path fill="#000000" opacity="1.00" d=" M 293.94 176.21 C 299.46 180.66 291.71 188.77 293.94 176.21 Z" />
<path fill="#000000" opacity="1.00" d=" M 202.01 181.03 C 205.75 181.18 202.70 187.18 202.97 189.93 C 199.45 189.34 200.33 183.11 202.01 181.03 Z" />
<path fill="#000000" opacity="1.00" d=" M 290.26 181.02 C 293.43 181.78 292.49 187.67 290.95 190.19 C 290.55 188.28 287.96 182.23 290.26 181.02 Z" />
<path fill="#000000" opacity="1.00" d=" M 205.04 187.31 C 209.61 185.51 207.00 194.46 206.83 196.12 C 202.92 195.53 205.36 190.08 205.04 187.31 Z" />
<path fill="#000000" opacity="1.00" d=" M 286.37 186.73 C 292.94 197.65 281.94 196.43 286.37 186.73 Z" />
<path fill="#000000" opacity="1.00" d=" M 210.18 193.22 C 211.69 195.79 210.46 199.97 209.81 203.02 C 206.62 200.47 209.02 196.20 210.18 193.22 Z" />
<path fill="#000000" opacity="1.00" d=" M 282.20 193.57 C 284.19 194.39 286.31 200.89 283.19 203.02 C 282.23 199.98 282.09 196.74 282.20 193.57 Z" />
<path fill="#000000" opacity="1.00" d=" M 213.22 200.09 C 216.22 200.49 215.10 208.28 212.01 208.82 C 213.21 206.96 210.92 200.81 213.22 200.09 Z" />
<path fill="#000000" opacity="1.00" d=" M 279.02 200.18 C 282.75 199.65 279.39 207.18 280.94 208.96 C 278.02 207.85 277.79 201.64 279.02 200.18 Z" />
<path fill="#000000" opacity="1.00" d=" M 216.48 205.79 C 218.42 204.23 218.36 213.43 215.53 213.82 C 215.19 211.12 215.52 208.35 216.48 205.79 Z" />
<path fill="#000000" opacity="1.00" d=" M 275.47 204.94 C 281.25 214.83 273.49 214.64 275.47 204.94 Z" />
<path fill="#000000" opacity="1.00" d=" M 170.29 208.43 C 175.20 210.42 165.83 213.69 170.29 208.43 Z" />
<path fill="#000000" opacity="1.00" d=" M 322.13 208.33 C 327.58 211.49 318.71 212.86 322.13 208.33 Z" />
<path fill="#000000" opacity="1.00" d=" M 220.06 210.04 C 224.08 210.95 220.45 217.86 220.97 220.89 C 216.76 219.96 219.58 213.21 220.06 210.04 Z" />
<path fill="#000000" opacity="1.00" d=" M 272.11 210.18 C 274.33 211.80 274.99 218.15 272.90 221.21 C 272.50 218.50 269.79 212.17 272.11 210.18 Z" />
<path fill="#000000" opacity="1.00" d=" M 173.38 211.16 C 178.24 211.84 168.80 218.44 173.38 211.16 Z" />
<path fill="#000000" opacity="1.00" d=" M 317.95 210.92 C 323.70 212.61 318.59 218.08 317.95 210.92 Z" />
<path fill="#000000" opacity="1.00" d=" M 175.23 215.41 C 181.17 214.89 174.04 221.43 175.23 215.41 Z" />
<path fill="#000000" opacity="1.00" d=" M 224.08 215.06 C 226.24 216.51 227.07 225.69 223.22 225.93 C 222.01 222.51 221.81 218.06 224.08 215.06 Z" />
<path fill="#000000" opacity="1.00" d=" M 268.10 214.93 C 271.55 216.90 270.70 222.63 269.78 225.99 C 266.19 224.48 267.71 218.29 268.10 214.93 Z" />
<path fill="#000000" opacity="1.00" d=" M 316.34 215.21 C 322.00 216.57 312.08 220.20 316.34 215.21 Z" />
<path fill="#000000" opacity="1.00" d=" M 227.11 221.26 C 231.78 219.99 226.45 230.19 229.09 232.14 C 224.96 230.54 226.70 224.41 227.11 221.26 Z" />
<path fill="#000000" opacity="1.00" d=" M 264.23 220.97 C 267.32 222.13 267.82 230.67 263.91 232.13 C 264.38 228.43 264.47 224.69 264.23 220.97 Z" />
<path fill="#000000" opacity="1.00" d=" M 232.05 226.27 C 235.20 227.48 232.55 233.59 233.94 236.81 C 229.72 235.51 231.22 229.56 232.05 226.27 Z" />
<path fill="#000000" opacity="1.00" d=" M 260.22 226.36 C 262.39 228.00 263.13 235.81 259.06 236.81 C 260.06 233.53 258.59 228.65 260.22 226.36 Z" />
<path fill="#000000" opacity="1.00" d=" M 147.50 249.33 C 150.30 253.02 141.02 253.62 147.50 249.33 Z" />
<path fill="#000000" opacity="1.00" d=" M 344.70 249.11 C 351.08 250.87 345.21 255.94 344.70 249.11 Z" />
<path fill="#000000" opacity="1.00" d=" M 151.30 250.39 C 154.39 254.87 145.62 253.88 151.30 250.39 Z" />
<path fill="#000000" opacity="1.00" d=" M 341.21 250.57 C 346.92 251.65 340.14 256.73 341.21 250.57 Z" />
<path fill="#000000" opacity="1.00" d=" M 154.27 252.32 C 159.35 250.70 154.11 257.33 154.27 252.32 Z" />
<path fill="#000000" opacity="1.00" d=" M 337.20 251.96 C 342.46 252.92 333.68 255.94 337.20 251.96 Z" />
<path fill="#000000" opacity="1.00" d=" M 212.41 260.23 C 223.87 264.95 233.99 276.02 246.85 279.49 C 258.11 274.93 268.32 268.15 277.57 260.32 C 280.46 258.50 283.45 262.90 280.98 265.05 C 269.13 268.65 257.71 274.56 248.41 282.80 C 246.55 294.55 245.82 306.86 249.52 318.34 C 251.09 322.42 242.95 323.16 243.34 319.04 C 246.12 307.16 247.33 294.59 244.65 282.60 C 235.22 274.95 224.41 268.54 212.56 265.56 C 210.56 264.41 210.84 261.62 212.41 260.23 Z" />
<path fill="#000000" opacity="1.00" d=" M 129.52 288.32 C 133.31 291.13 118.98 292.99 129.52 288.32 Z" />
<path fill="#000000" opacity="1.00" d=" M 152.15 288.15 C 150.32 296.80 138.12 293.04 152.15 288.15 Z" />
<path fill="#000000" opacity="1.00" d=" M 159.43 288.35 C 160.56 290.18 154.39 293.61 151.78 294.89 C 152.97 291.47 156.02 289.24 159.43 288.35 Z" />
<path fill="#000000" opacity="1.00" d=" M 165.48 288.35 C 168.90 287.43 162.13 294.73 159.19 294.23 C 160.62 291.70 162.69 289.38 165.48 288.35 Z" />
<path fill="#000000" opacity="1.00" d=" M 326.08 287.88 C 335.60 290.73 333.40 299.07 326.08 287.88 Z" />
<path fill="#000000" opacity="1.00" d=" M 332.86 288.12 C 336.48 289.04 339.96 291.16 341.22 294.89 C 338.17 293.11 334.25 291.63 332.86 288.12 Z" />
<path fill="#000000" opacity="1.00" d=" M 340.50 288.29 C 354.34 292.83 343.62 296.73 340.50 288.29 Z" />
<path fill="#000000" opacity="1.00" d=" M 361.97 287.81 C 370.82 289.26 365.86 295.40 361.97 287.81 Z" />
<path fill="#000000" opacity="1.00" d=" M 133.54 289.27 C 142.77 287.82 125.20 297.27 133.54 289.27 Z" />
<path fill="#000000" opacity="1.00" d=" M 142.58 289.34 C 148.51 287.65 137.83 295.93 137.46 293.56 C 138.22 291.32 140.42 289.99 142.58 289.34 Z" />
<path fill="#000000" opacity="1.00" d=" M 171.99 289.24 C 173.85 290.55 167.62 294.42 165.07 294.77 C 164.93 291.06 169.49 290.70 171.99 289.24 Z" />
<path fill="#000000" opacity="1.00" d=" M 178.56 289.35 C 184.79 287.85 172.70 296.96 172.41 294.48 C 173.84 292.22 175.92 290.11 178.56 289.35 Z" />
<path fill="#000000" opacity="1.00" d=" M 185.35 289.32 C 192.00 289.55 178.62 296.28 178.15 295.23 C 179.61 292.43 182.64 290.75 185.35 289.32 Z" />
<path fill="#000000" opacity="1.00" d=" M 306.20 289.20 C 309.85 289.75 313.60 292.52 315.13 295.91 C 312.43 294.24 304.24 291.92 306.20 289.20 Z" />
<path fill="#000000" opacity="1.00" d=" M 312.20 288.78 C 315.70 289.33 320.01 291.90 320.72 295.07 C 317.17 294.51 314.12 291.70 312.20 288.78 Z" />
<path fill="#000000" opacity="1.00" d=" M 319.95 289.03 C 333.06 292.60 324.92 297.46 319.95 289.03 Z" />
<path fill="#000000" opacity="1.00" d=" M 348.18 288.76 C 351.36 289.32 354.92 290.84 355.84 294.26 C 352.82 293.34 349.52 291.80 348.18 288.76 Z" />
<path fill="#000000" opacity="1.00" d=" M 356.27 288.75 C 365.04 289.66 359.86 296.38 356.27 288.75 Z" />
<path fill="#000000" opacity="1.00" d=" M 192.51 290.31 C 198.64 289.42 185.75 296.74 185.24 295.37 C 186.47 292.56 189.70 291.11 192.51 290.31 Z" />
<path fill="#000000" opacity="1.00" d=" M 298.18 289.81 C 301.97 290.49 306.77 292.01 307.98 296.09 C 304.69 294.22 300.07 293.23 298.18 289.81 Z" />
<path fill="#000000" opacity="1.00" d=" M 198.47 292.35 C 205.33 290.95 190.31 301.29 191.79 295.81 C 193.82 294.32 195.99 292.92 198.47 292.35 Z" />
<path fill="#000000" opacity="1.00" d=" M 292.21 291.94 C 295.65 292.42 300.18 293.93 301.74 296.94 C 298.70 298.55 293.70 294.39 292.21 291.94 Z" />
<path fill="#000000" opacity="1.00" d=" M 214.23 315.24 C 215.71 317.44 208.00 321.35 204.99 322.12 C 206.19 318.01 211.00 317.23 214.23 315.24 Z" />
<path fill="#000000" opacity="1.00" d=" M 277.92 314.97 C 281.26 317.12 286.74 317.63 287.94 322.09 C 284.01 320.84 279.71 318.97 277.92 314.97 Z" />
<path fill="#000000" opacity="1.00" d=" M 213.21 321.19 C 212.00 325.64 207.03 327.01 203.13 328.21 C 204.71 324.12 209.97 323.46 213.21 321.19 Z" />
<path fill="#000000" opacity="1.00" d=" M 279.54 321.30 C 282.72 323.59 288.38 323.96 289.80 328.18 C 285.57 327.50 281.54 325.20 279.54 321.30 Z" />
<path fill="#000000" opacity="1.00" d=" M 208.65 328.58 C 213.21 329.22 201.29 335.54 200.44 333.48 C 202.04 330.57 205.93 330.13 208.65 328.58 Z" />
<path fill="#000000" opacity="1.00" d=" M 282.92 328.02 C 286.28 329.85 291.26 330.31 292.88 334.18 C 289.29 332.98 283.66 332.58 282.92 328.02 Z" />
<path fill="#000000" opacity="1.00" d=" M 206.80 334.31 C 207.15 338.02 200.73 338.42 197.78 339.90 C 198.74 335.93 203.73 335.87 206.80 334.31 Z" />
<path fill="#000000" opacity="1.00" d=" M 285.60 334.29 C 298.77 336.52 294.15 343.86 285.60 334.29 Z" />
<path fill="#000000" opacity="1.00" d=" M 70.25 338.26 C 79.11 341.87 66.88 352.86 65.74 359.76 C 62.40 354.09 66.51 343.45 70.25 338.26 M 69.78 342.50 C 65.57 349.33 72.65 347.76 69.78 342.50 Z" />
<path fill="#000000" opacity="1.00" d=" M 421.25 338.26 C 426.91 340.82 430.71 354.24 427.21 359.82 C 426.69 352.86 414.82 343.78 421.25 338.26 M 422.26 343.57 C 423.35 352.12 426.30 343.07 422.26 343.57 Z" />
<path fill="#000000" opacity="1.00" d=" M 201.91 341.31 C 207.51 341.07 197.50 345.64 194.88 345.98 C 195.19 342.73 199.54 342.49 201.91 341.31 Z" />
<path fill="#000000" opacity="1.00" d=" M 289.23 340.98 C 302.30 343.22 296.17 349.35 289.23 340.98 Z" />
<path fill="#000000" opacity="1.00" d=" M 198.51 347.33 C 205.24 346.40 192.77 352.91 192.36 350.43 C 193.39 348.27 196.45 348.11 198.51 347.33 Z" />
<path fill="#000000" opacity="1.00" d=" M 292.12 346.81 C 295.08 347.77 299.85 347.71 300.88 351.19 C 297.91 350.23 293.14 350.29 292.12 346.81 Z" />
<path fill="#000000" opacity="1.00" d=" M 196.96 352.10 C 197.02 356.43 191.46 356.67 188.24 357.19 C 189.03 353.76 194.32 353.76 196.96 352.10 Z" />
<path fill="#000000" opacity="1.00" d=" M 295.57 352.18 C 298.28 353.82 303.92 353.65 304.71 357.15 C 301.15 356.89 296.78 356.09 295.57 352.18 Z" />
<path fill="#000000" opacity="1.00" d=" M 93.79 359.19 C 100.23 360.88 105.86 371.50 101.58 374.37 C 101.39 367.82 96.34 364.42 93.79 359.19 Z" />
<path fill="#000000" opacity="1.00" d=" M 191.05 359.36 C 197.30 362.26 174.76 365.80 191.05 359.36 Z" />
<path fill="#000000" opacity="1.00" d=" M 300.10 358.93 C 313.78 361.47 304.15 367.00 300.10 358.93 Z" />
<path fill="#000000" opacity="1.00" d=" M 398.56 359.52 C 398.51 362.82 390.77 368.27 391.42 374.37 C 387.30 371.87 392.38 361.27 398.56 359.52 Z" />
<path fill="#000000" opacity="1.00" d=" M 48.51 364.46 C 63.90 365.70 40.40 368.60 48.51 364.46 Z" />
<path fill="#000000" opacity="1.00" d=" M 440.52 364.13 C 456.10 363.17 436.29 370.98 440.52 364.13 Z" />
<path fill="#000000" opacity="1.00" d=" M 188.54 365.36 C 188.60 371.51 173.77 370.23 188.54 365.36 Z" />
<path fill="#000000" opacity="1.00" d=" M 303.61 365.15 C 317.18 367.73 307.88 373.78 303.61 365.15 Z" />
<path fill="#000000" opacity="1.00" d=" M 49.41 368.26 C 67.05 369.55 35.79 374.76 49.41 368.26 Z" />
<path fill="#000000" opacity="1.00" d=" M 441.35 368.29 C 444.24 367.52 446.76 369.69 448.13 372.03 C 443.85 370.02 431.69 371.67 441.35 368.29 Z" />
<path fill="#000000" opacity="1.00" d=" M 88.10 369.14 C 99.06 371.87 82.91 379.28 88.10 369.14 Z" />
<path fill="#000000" opacity="1.00" d=" M 403.26 369.20 C 413.15 372.44 394.37 379.62 403.26 369.20 Z" />
<path fill="#000000" opacity="1.00" d=" M 50.30 372.30 C 65.80 373.58 40.33 377.17 50.30 372.30 Z" />
<path fill="#000000" opacity="1.00" d=" M 185.00 372.06 C 186.87 376.98 171.79 376.64 185.00 372.06 Z" />
<path fill="#000000" opacity="1.00" d=" M 306.88 371.82 C 318.15 374.34 310.84 379.13 306.88 371.82 Z" />
<path fill="#000000" opacity="1.00" d=" M 440.31 372.30 C 455.77 373.65 430.11 377.11 440.31 372.30 Z" />
<path fill="#000000" opacity="1.00" d=" M 225.11 373.20 C 230.94 375.09 220.96 377.72 225.11 373.20 Z" />
<path fill="#000000" opacity="1.00" d=" M 267.11 373.20 C 272.94 375.09 262.96 377.72 267.11 373.20 Z" />
<path fill="#000000" opacity="1.00" d=" M 181.48 378.25 C 185.23 381.29 170.68 382.52 181.48 378.25 Z" />
<path fill="#000000" opacity="1.00" d=" M 222.32 378.09 C 231.93 377.08 218.29 383.30 222.32 378.09 Z" />
<path fill="#000000" opacity="1.00" d=" M 266.98 378.01 C 275.38 376.51 269.03 383.80 266.98 378.01 Z" />
<path fill="#000000" opacity="1.00" d=" M 309.96 377.85 C 318.93 378.82 314.20 385.32 309.96 377.85 Z" />
<path fill="#000000" opacity="1.00" d=" M 62.25 380.44 C 71.89 383.93 69.97 398.09 58.95 389.98 C 67.72 390.68 63.58 387.66 63.43 384.39 C 57.25 392.49 58.86 386.31 62.25 380.44 Z" />
<path fill="#000000" opacity="1.00" d=" M 430.04 380.39 C 434.24 384.76 435.91 393.35 429.57 384.38 C 429.48 387.70 425.21 390.60 434.07 390.13 C 422.28 396.50 421.96 385.69 430.04 380.39 Z" />
<path fill="#000000" opacity="1.00" d=" M 221.02 382.01 C 228.88 380.24 221.64 387.76 221.02 382.01 Z" />
<path fill="#000000" opacity="1.00" d=" M 268.02 382.01 C 275.88 380.24 268.64 387.76 268.02 382.01 Z" />
<path fill="#000000" opacity="1.00" d=" M 88.08 398.81 C 94.95 401.38 112.49 395.39 109.35 406.04 C 102.58 406.55 91.82 405.69 88.08 398.81 M 100.63 402.22 C 104.15 406.39 106.63 400.11 100.63 402.22 Z" />
<path fill="#000000" opacity="1.00" d=" M 401.45 399.32 C 411.89 400.72 377.76 413.67 383.85 400.92 C 389.54 399.40 395.64 400.32 401.45 399.32 M 388.41 402.43 C 389.46 406.35 395.52 399.50 388.41 402.43 Z" />
<path fill="#000000" opacity="1.00" d=" M 70.42 400.50 C 73.85 401.00 69.01 408.87 65.20 408.25 C 66.86 405.61 68.62 403.04 70.42 400.50 Z" />
<path fill="#000000" opacity="1.00" d=" M 421.89 400.36 C 424.78 401.76 425.68 405.88 427.61 408.39 C 423.94 408.10 420.10 402.52 421.89 400.36 Z" />
<path fill="#000000" opacity="1.00" d=" M 73.34 402.43 C 77.47 404.07 71.68 412.02 67.16 411.24 C 69.30 408.31 72.74 406.42 73.34 402.43 Z" />
<path fill="#000000" opacity="1.00" d=" M 418.92 402.41 C 420.71 405.05 423.08 408.67 425.84 411.24 C 421.31 411.57 416.50 405.53 418.92 402.41 Z" />
<path fill="#000000" opacity="1.00" d=" M 76.20 405.17 C 79.69 406.52 76.85 413.05 73.08 413.10 C 73.91 410.38 74.70 407.60 76.20 405.17 Z" />
<path fill="#000000" opacity="1.00" d=" M 416.04 405.05 C 418.59 406.42 418.80 410.48 419.92 413.10 C 416.30 412.58 413.90 408.21 416.04 405.05 Z" />
<path fill="#000000" opacity="1.00" d=" M 69.50 413.16 C 74.03 411.44 69.35 417.63 69.50 413.16 Z" />
<path fill="#000000" opacity="1.00" d=" M 421.50 413.16 C 426.02 411.44 421.35 417.63 421.50 413.16 Z" />
</svg>
